<svg width="24" height="24" viewBox="0 0 24 24" fill="none" xmlns="http://www.w3.org/2000/svg">
<path fill-rule="evenodd" clip-rule="evenodd" d="M10.1155 16.7837C10.4189 16.5752 10.8338 16.6523 11.0422 16.9558C11.1185 17.067 11.2229 17.1548 11.344 17.2104C11.3528 17.2144 11.3615 17.2187 11.3701 17.2231C11.58 17.3308 11.8204 17.3606 12.0496 17.3077C12.2788 17.2548 12.4831 17.1222 12.6263 16.9321C12.8477 16.638 13.2656 16.5792 13.5596 16.8007C13.8536 17.0223 13.9124 17.4403 13.6909 17.7344C13.3599 18.1739 12.8852 18.4832 12.3493 18.6069C11.8179 18.7295 11.261 18.6618 10.7746 18.416C10.4397 18.2593 10.1528 18.0157 9.94344 17.7107C9.73507 17.4072 9.8121 16.9921 10.1155 16.7837Z" fill="#99999D"/>
<path fill-rule="evenodd" clip-rule="evenodd" d="M11.8258 6.66659C10.942 6.66659 10.0945 7.01777 9.46955 7.6429C8.84463 8.26802 8.49355 9.11586 8.49355 9.99992V10.5066C8.49293 11.2136 8.21166 11.892 7.71159 12.3916L7.47196 12.6313C7.27324 12.8298 7.16105 13.0994 7.16066 13.3803V13.6066C7.16066 13.8877 7.2723 14.1573 7.47102 14.3561C7.66975 14.5549 7.93927 14.6666 8.22031 14.6666H15.4313C15.7123 14.6666 15.9819 14.5549 16.1806 14.3561C16.3769 14.1597 16.4882 13.8942 16.4909 13.6168C16.4818 13.3911 16.4004 13.1743 16.2586 12.9983L16.2495 12.9866L15.7401 12.3249C15.3647 11.8543 15.1595 11.2704 15.158 10.6682L15.158 10.6666V9.99992C15.158 9.11586 14.807 8.26802 14.1821 7.6429C13.5571 7.01777 12.7096 6.66659 11.8258 6.66659ZM8.52705 6.70009C9.40193 5.82492 10.5885 5.33325 11.8258 5.33325C13.0631 5.33325 14.2497 5.82492 15.1246 6.70009C15.9994 7.57526 16.4909 8.76224 16.4909 9.99992V10.6657C16.4918 10.9677 16.5952 11.2605 16.7842 11.4961L16.7924 11.5065L17.3014 12.1678C17.6244 12.5715 17.8077 13.0692 17.8235 13.5862C17.8237 13.593 17.8238 13.5998 17.8238 13.6066C17.8238 14.2413 17.5718 14.8501 17.1231 15.2989C16.6744 15.7478 16.0658 15.9999 15.4313 15.9999H8.22031C7.58577 15.9999 6.97721 15.7478 6.52852 15.2989C6.07983 14.8501 5.82776 14.2413 5.82776 13.6066L5.82776 13.3792C5.82845 12.7447 6.08096 12.1365 6.52979 11.6882C6.52978 11.6882 6.5298 11.6882 6.52979 11.6882L6.76938 11.4485C7.01936 11.1988 7.16028 10.8597 7.16066 10.5062V9.99992C7.16066 8.76224 7.65216 7.57526 8.52705 6.70009Z" fill="#99999D"/>
</svg>
