<svg width="21" height="20" viewBox="0 0 21 20" fill="none" xmlns="http://www.w3.org/2000/svg">
<path d="M8.63752 4.45689L3.63915 9.43898C3.56044 9.51588 3.49782 9.60759 3.45492 9.70879C3.41202 9.80999 3.38969 9.91866 3.38924 10.0285C3.39237 10.2475 3.48219 10.4565 3.63915 10.6098L8.63752 15.5919C8.79361 15.7465 9.00475 15.8333 9.22483 15.8333C9.44491 15.8333 9.65605 15.7465 9.81214 15.5919C9.9673 15.4363 10.0544 15.2258 10.0544 15.0065C10.0544 14.7871 9.9673 14.5766 9.81214 14.4211L6.23831 10.8589L17.5513 10.8589C17.7722 10.8589 17.9841 10.7714 18.1403 10.6157C18.2966 10.4599 18.3843 10.2487 18.3843 10.0285C18.3843 9.8083 18.2966 9.5971 18.1403 9.44138C17.9841 9.28566 17.7722 9.19818 17.5513 9.19818L6.23831 9.19818L9.81214 5.62768C9.89934 5.55324 9.97017 5.46164 10.0202 5.35862C10.0702 5.25561 10.0983 5.1434 10.1027 5.02904C10.1071 4.91469 10.0878 4.80066 10.0459 4.6941C10.004 4.58755 9.94052 4.49078 9.85933 4.40985C9.77814 4.32893 9.68105 4.26561 9.57415 4.22386C9.46725 4.18212 9.35284 4.16285 9.23811 4.16727C9.12339 4.17168 9.01081 4.19969 8.90746 4.24953C8.8041 4.29937 8.7122 4.36997 8.63752 4.45689Z" fill="#99999D"/>
</svg>
