<svg width="18" height="18" viewBox="0 0 18 18" fill="none" xmlns="http://www.w3.org/2000/svg">
<path d="M11.025 4.0111L15.525 8.49498C15.5959 8.56419 15.6522 8.64673 15.6909 8.73781C15.7295 8.82889 15.7496 8.9267 15.75 9.02557C15.7472 9.22269 15.6663 9.41071 15.525 9.54869L11.025 14.0326C10.8845 14.1718 10.6944 14.2499 10.4963 14.2499C10.2981 14.2499 10.108 14.1718 9.9675 14.0326C9.82781 13.8925 9.74941 13.7031 9.74941 13.5057C9.74941 13.3083 9.82781 13.1189 9.9675 12.9789L13.185 9.77288L3 9.77288C2.80109 9.77288 2.61032 9.69415 2.46967 9.554C2.32902 9.41385 2.25 9.22377 2.25 9.02557C2.25 8.82737 2.32902 8.63729 2.46967 8.49714C2.61032 8.35699 2.80109 8.27826 3 8.27826L13.185 8.27826L9.9675 5.06481C9.88899 4.99781 9.82523 4.91537 9.78021 4.82266C9.73519 4.72994 9.70989 4.62895 9.7059 4.52603C9.70191 4.42311 9.71932 4.32049 9.75702 4.22459C9.79473 4.12869 9.85192 4.04159 9.92501 3.96877C9.99811 3.89594 10.0855 3.83894 10.1818 3.80137C10.278 3.7638 10.381 3.74646 10.4843 3.75044C10.5876 3.75441 10.6889 3.77962 10.782 3.82448C10.875 3.86933 10.9578 3.93287 11.025 4.0111Z" fill="#99999D"/>
</svg>
