<svg width="24" height="24" viewBox="0 0 24 24" fill="none" xmlns="http://www.w3.org/2000/svg">
<rect width="24" height="24" rx="12" fill="#231F20"/>
<path d="M15.1193 14.7692C15.4054 14.4941 15.6688 14.1964 15.9071 13.879C16.385 13.2356 17.1965 11.9489 17.249 10.5624C17.258 10.2363 17.2008 9.91175 17.0807 9.60842C16.9606 9.3051 16.7803 9.0293 16.5505 8.79773C16.3479 8.59529 16.1068 8.43546 15.8415 8.32767C15.5742 8.2226 15.2882 8.17344 15.0011 8.18325C14.4368 8.20808 13.9026 8.44499 13.5053 8.84664C13.108 9.24828 12.877 9.78507 12.8583 10.3497H14.279C14.2935 10.1515 14.38 9.96541 14.5222 9.82659C14.6645 9.68776 14.8525 9.60575 15.051 9.59602C15.1411 9.59469 15.2304 9.61167 15.3136 9.64592C15.3979 9.68045 15.474 9.73235 15.5368 9.79822C15.6288 9.89249 15.7011 10.0041 15.7496 10.1265C15.7966 10.2487 15.8198 10.3789 15.8178 10.5099C15.7916 11.2346 15.395 12.18 14.7543 13.0387C14.4565 13.4384 14.1098 13.7992 13.7223 14.1127C12.2106 13.2545 10.9531 12.0115 10.0774 10.5099C9.65465 9.78509 9.52335 9.27828 9.63627 8.81611C9.69106 8.65061 9.79673 8.50665 9.93821 8.40479C10.0797 8.30292 10.2497 8.24836 10.4241 8.2489C10.6695 8.2482 10.9051 8.34483 11.0794 8.51761C11.2536 8.69039 11.3523 8.92522 11.3537 9.17062H12.7769C12.7761 8.86379 12.7147 8.56016 12.5962 8.27715C12.4776 7.99415 12.3044 7.73734 12.0863 7.5215C11.6452 7.08264 11.0489 6.83542 10.4267 6.83349C9.93168 6.82726 9.44854 6.98519 9.05279 7.2826C8.65703 7.58001 8.37095 8.00014 8.23924 8.47736C8.09 9.15192 8.16659 9.85683 8.4572 10.4836C7.7918 10.8349 7.26365 11.3995 6.95742 12.0868C6.65119 12.7741 6.58463 13.5443 6.76841 14.274C6.95218 15.0037 7.37565 15.6505 7.97091 16.1107C8.56618 16.571 9.29875 16.818 10.0512 16.8122H10.1194C11.4293 16.8036 12.7123 16.4406 13.8326 15.7618C15.1435 16.3684 16.5577 16.7204 18 16.7991V15.3811C17.0145 15.3227 16.0435 15.1164 15.1193 14.7692ZM10.1037 15.3994H10.0538C9.61327 15.3969 9.18622 15.2472 8.8406 14.974C8.49766 14.7057 8.25462 14.3302 8.15036 13.9074C8.0461 13.4847 8.08664 13.0392 8.2655 12.6422C8.44871 12.2445 8.75916 11.9193 9.14784 11.7178C9.98636 12.9957 11.0764 14.0893 12.3515 14.932C11.6406 15.235 10.8765 15.3939 10.1037 15.3994Z" fill="white"/>
</svg>
