<svg width="20" height="20" viewBox="0 0 20 20" fill="none" xmlns="http://www.w3.org/2000/svg">
<g clip-path="url(#clip0_5873_76519)">
<path fill-rule="evenodd" clip-rule="evenodd" d="M8.24419 3.03484C7.78902 2.69632 7.23644 2.51434 6.66919 2.51617L6.665 2.51617C6.45239 2.51579 6.24766 2.59669 6.09274 2.74231C5.94693 2.87938 5.85562 3.06403 5.83475 3.26223C5.84303 3.37904 5.87194 3.49357 5.92024 3.60047C5.9739 3.71922 6.05044 3.82624 6.14548 3.91539C6.24052 4.00455 6.35221 4.07409 6.47414 4.12006C6.59608 4.16603 6.72588 4.18751 6.85612 4.18328L6.86964 4.18284H8.85419C8.92441 4.18282 8.99529 4.18282 9.06682 4.18282C8.92192 3.72443 8.63525 3.32301 8.24717 3.03705L8.24419 3.03484ZM4.50447 4.49091C4.46727 4.42448 4.43289 4.35637 4.40143 4.28676C4.25759 3.96842 4.1779 3.62486 4.16692 3.2757L4.16572 3.23758L4.16801 3.19951C4.20628 2.5628 4.48647 1.96481 4.95123 1.52793C5.41548 1.09154 6.02881 0.848888 6.66591 0.849503L6.66801 0.849507L6.66382 0.84951L6.66591 0.849503C7.59196 0.846973 8.494 1.14405 9.23731 1.69638C9.52568 1.90907 9.7817 2.15857 9.99984 2.43687C10.218 2.15858 10.474 1.90909 10.7623 1.6964C11.5057 1.14404 12.4078 0.846953 13.3339 0.849504C13.9709 0.848913 14.5842 1.09156 15.0484 1.52793C15.5132 1.96481 15.7934 2.5628 15.8317 3.19951L15.834 3.23758L15.8328 3.2757C15.8218 3.62485 15.7421 3.96842 15.5982 4.28676C15.5668 4.35637 15.5324 4.42448 15.4952 4.49091C16.1128 4.66454 16.6536 4.94405 17.1128 5.40321C17.7816 6.07201 18.0692 6.91409 18.2037 7.91421C18.3332 8.87751 18.3332 10.1023 18.3332 11.6219V11.7438C18.3332 13.2633 18.3332 14.4881 18.2037 15.4514C18.0692 16.4516 17.7816 17.2936 17.1128 17.9624C16.444 18.6312 15.6019 18.9189 14.6018 19.0534C13.6385 19.1829 12.4137 19.1828 10.8941 19.1828H9.10556C7.586 19.1828 6.36119 19.1829 5.39789 19.0534C4.39777 18.9189 3.55569 18.6312 2.88689 17.9624C2.2181 17.2936 1.93044 16.4516 1.79597 15.4514C1.66646 14.4881 1.66648 13.2633 1.6665 11.7438V11.6219C1.66648 10.1023 1.66646 8.87751 1.79597 7.91421C1.93044 6.91409 2.2181 6.07201 2.88689 5.40321C3.34605 4.94405 3.88689 4.66454 4.50447 4.49091ZM10.8332 17.5162C12.4281 17.5162 13.5404 17.5144 14.3797 17.4015C15.195 17.2919 15.6268 17.0914 15.9343 16.7839C16.2418 16.4764 16.4423 16.0447 16.5519 15.2294C16.644 14.5446 16.6621 13.6782 16.6656 12.5162H10.8332V17.5162ZM9.16651 12.5162L9.1665 17.5162C7.5716 17.5162 6.45925 17.5144 5.61997 17.4015C4.80467 17.2919 4.37292 17.0914 4.0654 16.7839C3.75789 16.4764 3.55739 16.0447 3.44778 15.2294C3.35572 14.5446 3.33759 13.6782 3.33403 12.5162H9.16651ZM10.8332 10.8495H16.6656C16.6621 9.68749 16.644 8.82101 16.5519 8.13629C16.4423 7.32098 16.2418 6.88924 15.9343 6.58172C15.6268 6.27421 15.195 6.07371 14.3797 5.9641C13.576 5.85604 12.5219 5.84984 11.0335 5.84951H10.8332V10.8495ZM9.16651 5.84951V10.8495H3.33403C3.33759 9.68749 3.35572 8.82101 3.44778 8.13629C3.55739 7.32098 3.75789 6.88924 4.0654 6.58172C4.37292 6.27421 4.80467 6.07371 5.61997 5.9641C6.42366 5.85604 7.47775 5.84984 8.9662 5.84951H9.16651ZM11.1455 4.18284H13.13L13.1436 4.18328C13.2738 4.18751 13.4036 4.16603 13.5255 4.12006C13.6475 4.07409 13.7592 4.00455 13.8542 3.91539C13.9492 3.82624 14.0258 3.71922 14.0794 3.60047C14.1277 3.49357 14.1566 3.37905 14.1649 3.26223C14.1441 3.06403 14.0527 2.87938 13.9069 2.74231C13.752 2.59669 13.5473 2.51579 13.3347 2.51617L13.3305 2.51617C12.7632 2.51434 12.2107 2.69632 11.7555 3.03484L11.7525 3.03705C11.3644 3.32302 11.0778 3.72443 10.9329 4.18282C11.0044 4.18282 11.0753 4.18282 11.1455 4.18284Z" fill="#707075"/>
</g>
<defs>
<clipPath id="clip0_5873_76519">
<rect width="20" height="20" fill="white"/>
</clipPath>
</defs>
</svg>
