<svg width="24" height="23" viewBox="0 0 24 23" fill="none" xmlns="http://www.w3.org/2000/svg">
<path d="M16.7005 3.98694V2.97768C16.7005 2.73211 16.603 2.4966 16.4294 2.32296C16.2558 2.14931 16.0204 2.05176 15.7749 2.05176C15.5294 2.05176 15.294 2.14931 15.1204 2.32296C14.9468 2.4966 14.8493 2.73211 14.8493 2.97768V3.90361H9.29553V2.97768C9.29553 2.73211 9.19801 2.4966 9.02442 2.32296C8.85083 2.14931 8.61539 2.05176 8.3699 2.05176C8.12441 2.05176 7.88898 2.14931 7.71539 2.32296C7.5418 2.4966 7.44428 2.73211 7.44428 2.97768V3.98694C6.15113 4.2056 4.97706 4.87498 4.12998 5.87655C3.28291 6.87812 2.81749 8.14724 2.81616 9.45916V15.0147C2.81616 16.4881 3.40129 17.9012 4.44282 18.9431C5.48435 19.985 6.89696 20.5703 8.3699 20.5703H15.7749C17.2478 20.5703 18.6604 19.985 19.702 18.9431C20.7435 17.9012 21.3286 16.4881 21.3286 15.0147V9.45916C21.3273 8.14724 20.8619 6.87812 20.0148 5.87655C19.1677 4.87498 17.9937 4.2056 16.7005 3.98694ZM19.4774 15.0147C19.4774 15.997 19.0873 16.9391 18.393 17.6336C17.6986 18.3282 16.7569 18.7184 15.7749 18.7184H8.3699C7.38794 18.7184 6.44619 18.3282 5.75184 17.6336C5.05749 16.9391 4.66741 15.997 4.66741 15.0147V9.45916C4.66802 8.63854 4.94107 7.84136 5.44367 7.19279C5.94628 6.54422 6.64997 6.08099 7.44428 5.87583V6.68139C7.44428 6.92696 7.5418 7.16247 7.71539 7.33612C7.88898 7.50976 8.12441 7.60731 8.3699 7.60731C8.61539 7.60731 8.85083 7.50976 9.02442 7.33612C9.19801 7.16247 9.29553 6.92696 9.29553 6.68139V5.75546H14.8493V6.68139C14.8493 6.92696 14.9468 7.16247 15.1204 7.33612C15.294 7.50976 15.5294 7.60731 15.7749 7.60731C16.0204 7.60731 16.2558 7.50976 16.4294 7.33612C16.603 7.16247 16.7005 6.92696 16.7005 6.68139V5.87583C17.4948 6.08099 18.1985 6.54422 18.7011 7.19279C19.2037 7.84136 19.4768 8.63854 19.4774 9.45916V15.0147Z" fill="#99999D"/>
<path fill-rule="evenodd" clip-rule="evenodd" d="M7.44427 11.3111C7.44427 10.7997 7.85869 10.3851 8.3699 10.3851H15.7749C16.2861 10.3851 16.7005 10.7997 16.7005 11.3111C16.7005 11.8224 16.2861 12.237 15.7749 12.237H8.3699C7.85869 12.237 7.44427 11.8224 7.44427 11.3111Z" fill="#99999D"/>
<path fill-rule="evenodd" clip-rule="evenodd" d="M7.44427 15.0148C7.44427 14.5034 7.85869 14.0889 8.3699 14.0889H12.998C13.5092 14.0889 13.9236 14.5034 13.9236 15.0148C13.9236 15.5262 13.5092 15.9407 12.998 15.9407H8.3699C7.85869 15.9407 7.44427 15.5262 7.44427 15.0148Z" fill="#99999D"/>
</svg>
