<svg width="20" height="20" viewBox="0 0 20 20" fill="none" xmlns="http://www.w3.org/2000/svg">
<path d="M6.66557 10.8333C7.12573 10.8333 7.49876 10.4602 7.49876 9.99996C7.49876 9.53972 7.12573 9.16663 6.66557 9.16663C6.2054 9.16663 5.83237 9.53972 5.83237 9.99996C5.83237 10.4602 6.2054 10.8333 6.66557 10.8333Z" fill="#32323A"/>
<path d="M13.3311 10.8333C13.7913 10.8333 14.1643 10.4602 14.1643 9.99996C14.1643 9.53972 13.7913 9.16663 13.3311 9.16663C12.871 9.16663 12.4979 9.53972 12.4979 9.99996C12.4979 10.4602 12.871 10.8333 13.3311 10.8333Z" fill="#32323A"/>
<path d="M9.99835 10.8333C10.4585 10.8333 10.8316 10.4602 10.8316 9.99996C10.8316 9.53972 10.4585 9.16663 9.99835 9.16663C9.53819 9.16663 9.16516 9.53972 9.16516 9.99996C9.16516 10.4602 9.53819 10.8333 9.99835 10.8333Z" fill="#32323A"/>
<path d="M6.66557 14.1666C7.12573 14.1666 7.49876 13.7935 7.49876 13.3333C7.49876 12.8731 7.12573 12.5 6.66557 12.5C6.2054 12.5 5.83237 12.8731 5.83237 13.3333C5.83237 13.7935 6.2054 14.1666 6.66557 14.1666Z" fill="#32323A"/>
<path d="M13.3311 14.1666C13.7913 14.1666 14.1643 13.7935 14.1643 13.3333C14.1643 12.8731 13.7913 12.5 13.3311 12.5C12.871 12.5 12.4979 12.8731 12.4979 13.3333C12.4979 13.7935 12.871 14.1666 13.3311 14.1666Z" fill="#32323A"/>
<path d="M9.99835 14.1666C10.4585 14.1666 10.8316 13.7935 10.8316 13.3333C10.8316 12.8731 10.4585 12.5 9.99835 12.5C9.53819 12.5 9.16516 12.8731 9.16516 13.3333C9.16516 13.7935 9.53819 14.1666 9.99835 14.1666Z" fill="#32323A"/>
<path fill-rule="evenodd" clip-rule="evenodd" d="M6.66557 1.66663C7.12573 1.66663 7.49876 2.03972 7.49876 2.49996V4.94996C7.49876 5.4102 7.12573 5.78329 6.66557 5.78329C6.2054 5.78329 5.83237 5.4102 5.83237 4.94996V2.49996C5.83237 2.03972 6.2054 1.66663 6.66557 1.66663Z" fill="#32323A"/>
<path fill-rule="evenodd" clip-rule="evenodd" d="M13.3311 1.66663C13.7913 1.66663 14.1643 2.03972 14.1643 2.49996V4.99996C14.1643 5.4602 13.7913 5.83329 13.3311 5.83329C12.871 5.83329 12.4979 5.4602 12.4979 4.99996V2.49996C12.4979 2.03972 12.871 1.66663 13.3311 1.66663Z" fill="#32323A"/>
<path fill-rule="evenodd" clip-rule="evenodd" d="M6.16565 4.53329C4.6011 4.53329 3.33278 5.80182 3.33278 7.36663V13.8333C3.33278 15.3981 4.6011 16.6666 6.16565 16.6666H13.8311C15.3956 16.6666 16.6639 15.3981 16.6639 13.8333V7.36663C16.6639 5.80182 15.3956 4.53329 13.8311 4.53329H6.16565ZM1.66638 7.36663C1.66638 4.88134 3.68077 2.86663 6.16565 2.86663H13.8311C16.3159 2.86663 18.3303 4.88135 18.3303 7.36663V13.8333C18.3303 16.3186 16.3159 18.3333 13.8311 18.3333H6.16565C3.68077 18.3333 1.66638 16.3186 1.66638 13.8333V7.36663Z" fill="#32323A"/>
</svg>
