<svg width="21" height="20" viewBox="0 0 21 20" fill="none" xmlns="http://www.w3.org/2000/svg">
<path d="M10.9185 1.6665C9.27087 1.6665 7.66023 2.15525 6.29027 3.07092C4.9203 3.9866 3.85255 5.28809 3.22202 6.81081C2.5915 8.33353 2.42653 10.0091 2.74796 11.6256C3.0694 13.2421 3.86282 14.727 5.02787 15.8924C6.19293 17.0578 7.67731 17.8515 9.29329 18.173C10.9093 18.4946 12.5843 18.3296 14.1065 17.6988C15.6287 17.0681 16.9298 16 17.8452 14.6296C18.7605 13.2592 19.2491 11.648 19.2491 9.99984C19.2491 8.90549 19.0336 7.82186 18.615 6.81081C18.1963 5.79976 17.5827 4.8811 16.8091 4.10728C16.0356 3.33346 15.1172 2.71963 14.1065 2.30084C13.0958 1.88205 12.0125 1.6665 10.9185 1.6665ZM14.6756 8.33317L10.0854 12.8748C10.008 12.9529 9.91586 13.0149 9.81435 13.0572C9.71283 13.0996 9.60395 13.1213 9.49397 13.1213C9.384 13.1213 9.27511 13.0996 9.1736 13.0572C9.07208 13.0149 8.97994 12.9529 8.9025 12.8748L6.82818 10.8332C6.67302 10.677 6.58593 10.4658 6.58593 10.2457C6.58593 10.0255 6.67302 9.81431 6.82818 9.65817C6.90562 9.58006 6.99776 9.51807 7.09927 9.47576C7.20079 9.43345 7.30968 9.41167 7.41965 9.41167C7.52962 9.41167 7.63851 9.43345 7.74003 9.47576C7.84154 9.51807 7.93368 9.58006 8.01112 9.65817L9.5023 11.1498L13.4927 7.15817C13.5701 7.08006 13.6622 7.01807 13.7638 6.97576C13.8653 6.93345 13.9742 6.91167 14.0841 6.91167C14.1941 6.91167 14.303 6.93345 14.4045 6.97576C14.506 7.01807 14.5982 7.08006 14.6756 7.15817C14.8308 7.31431 14.9179 7.52552 14.9179 7.74567C14.9179 7.96583 14.8308 8.17704 14.6756 8.33317Z" fill="#27AE60"/>
</svg>
