<svg width="14" height="14" viewBox="0 0 14 14" fill="none" xmlns="http://www.w3.org/2000/svg">
<path fill-rule="evenodd" clip-rule="evenodd" d="M3.08205 3.08742C3.30978 2.85961 3.67901 2.85961 3.90674 3.08742L6.99326 6.17494L10.0798 3.08742C10.3075 2.85961 10.6767 2.85961 10.9045 3.08742C11.1322 3.31523 11.1322 3.68457 10.9045 3.91238L7.81794 6.9999L10.9045 10.0874C11.1322 10.3152 11.1322 10.6846 10.9045 10.9124C10.6767 11.1402 10.3075 11.1402 10.0798 10.9124L6.99326 7.82486L3.90674 10.9124C3.67901 11.1402 3.30978 11.1402 3.08205 10.9124C2.85432 10.6846 2.85432 10.3152 3.08205 10.0874L6.16857 6.9999L3.08205 3.91238C2.85432 3.68457 2.85432 3.31523 3.08205 3.08742Z" fill="#32323A"/>
</svg>
