<svg width="55" height="56" viewBox="0 0 55 56" fill="none" xmlns="http://www.w3.org/2000/svg">
<path d="M54.6858 28.0029C54.6861 28.6228 54.5503 29.2352 54.2879 29.7968C54.0256 30.3585 53.6431 30.8557 53.1675 31.2534C52.6919 31.6511 52.1348 31.9396 51.5354 32.0985C50.9361 32.2574 50.3092 32.2829 49.6989 32.1731L28.4276 28.3751L46.1537 40.7379C46.6611 41.0932 47.0845 41.5552 47.3942 42.0915C47.7038 42.6278 47.8923 43.2254 47.9462 43.8423C48.0002 44.4592 47.9183 45.0805 47.7064 45.6624C47.4946 46.2443 47.1578 46.7727 46.7198 47.2106C46.2818 47.6485 45.7531 47.9851 45.171 48.197C44.5889 48.4088 43.9675 48.4906 43.3504 48.4367C42.7333 48.3827 42.1355 48.1944 41.599 47.8848C41.0625 47.5752 40.6004 47.1519 40.245 46.6447L27.8722 28.9244L31.6774 50.1888C31.7881 50.7998 31.7633 51.4277 31.6046 52.028C31.446 52.6284 31.1573 53.1867 30.7592 53.6633C30.361 54.1399 29.863 54.5233 29.3004 54.7864C28.7377 55.0495 28.1241 55.1858 27.5029 55.1858C26.8817 55.1858 26.2682 55.0495 25.7055 54.7864C25.1428 54.5233 24.6448 54.1399 24.2466 53.6633C23.8485 53.1867 23.5599 52.6284 23.4012 52.028C23.2425 51.4277 23.2177 50.7998 23.3284 50.1888L27.1277 28.9244L14.7608 46.6447C14.4055 47.1519 13.9433 47.5752 13.4068 47.8848C12.8703 48.1944 12.2725 48.3827 11.6554 48.4367C11.0383 48.4906 10.4169 48.4088 9.8348 48.197C9.25271 47.9851 8.72406 47.6485 8.28604 47.2106C7.84802 46.7727 7.51126 46.2443 7.29938 45.6624C7.08749 45.0805 7.00563 44.4592 7.05959 43.8423C7.11354 43.2254 7.30201 42.6278 7.61169 42.0915C7.92137 41.5552 8.34475 41.0932 8.85214 40.7379L26.5782 28.3692L5.31284 32.1731C4.70161 32.2838 4.07354 32.259 3.47297 32.1004C2.8724 31.9418 2.31401 31.6532 1.83723 31.2552C1.36045 30.8572 0.976913 30.3593 0.713735 29.7969C0.450556 29.2344 0.314148 28.621 0.314148 28C0.314148 27.379 0.450556 26.7656 0.713735 26.2032C0.976913 25.6407 1.36045 25.1428 1.83723 24.7448C2.31401 24.3467 2.8724 24.0582 3.47297 23.8996C4.07354 23.741 4.70161 23.7162 5.31284 23.8269L26.6196 27.6308L8.8935 15.262C8.38612 14.9068 7.9627 14.4448 7.65302 13.9085C7.34334 13.3722 7.1549 12.7745 7.10095 12.1576C7.047 11.5407 7.12886 10.9195 7.34074 10.3376C7.55262 9.75572 7.88939 9.22728 8.32741 8.7894C8.76543 8.35152 9.29408 8.01483 9.87617 7.80302C10.4583 7.5912 11.0797 7.50937 11.6968 7.56331C12.3139 7.61724 12.9117 7.80565 13.4482 8.11523C13.9847 8.42481 14.4468 8.84805 14.8022 9.35528L27.1691 27.0756L23.3698 5.81121C23.2591 5.20019 23.2839 4.57232 23.4426 3.97195C23.6012 3.37157 23.8898 2.81336 24.288 2.33673C24.6862 1.86011 25.1842 1.4767 25.7469 1.2136C26.3095 0.950512 26.9231 0.814148 27.5443 0.814148C28.1654 0.814148 28.779 0.950512 29.3417 1.2136C29.9044 1.4767 30.4024 1.86011 30.8005 2.33673C31.1987 2.81336 31.4873 3.37157 31.646 3.97195C31.8047 4.57232 31.8295 5.20019 31.7188 5.81121L27.9136 27.0756L40.2864 9.35528C40.6417 8.84805 41.1039 8.42481 41.6404 8.11523C42.1769 7.80565 42.7747 7.61724 43.3918 7.56331C44.0089 7.50937 44.6303 7.5912 45.2124 7.80302C45.7945 8.01483 46.3231 8.35152 46.7611 8.7894C47.1992 9.22728 47.5359 9.75572 47.7478 10.3376C47.9597 10.9195 48.0416 11.5407 47.9876 12.1576C47.9336 12.7745 47.7452 13.3722 47.4355 13.9085C47.1259 14.4448 46.7024 14.9068 46.195 15.262L28.469 27.6308L49.7403 23.8269C50.3478 23.7248 50.9704 23.7562 51.5645 23.919C52.1587 24.0817 52.7103 24.3719 53.181 24.7694C53.6517 25.1668 54.0301 25.6619 54.29 26.2204C54.5498 26.7788 54.6849 27.3871 54.6858 28.0029Z" fill="white"/>
</svg>
