<svg width="20" height="20" viewBox="0 0 20 20" fill="none" xmlns="http://www.w3.org/2000/svg">
<path d="M7.61401 18.3418C7.14687 18.3332 6.7014 18.1432 6.3718 17.8119C6.0422 17.4806 5.85433 17.0341 5.84792 16.5668V15.7335C4.68971 15.5377 3.63743 14.9401 2.87574 14.0456C2.11406 13.1511 1.69164 12.0168 1.68262 10.8418V6.67513C1.68262 5.34904 2.20923 4.07727 3.1466 3.13959C4.08398 2.20191 5.35533 1.67512 6.68098 1.67512H13.3455C13.9131 1.67195 14.4769 1.76784 15.0116 1.95846C15.9865 2.30326 16.8306 2.94207 17.4274 3.78682C18.0242 4.63158 18.3444 5.64071 18.3438 6.67513V10.8418C18.3438 12.1679 17.8172 13.4396 16.8799 14.3773C15.9425 15.315 14.6711 15.8418 13.3455 15.8418H12.4208C12.0913 15.8427 11.7695 15.9413 11.4961 16.1251L8.59703 18.0501C8.3054 18.2425 7.96331 18.344 7.61401 18.3418ZM6.68098 3.34179C5.79722 3.34179 4.94965 3.69298 4.32473 4.3181C3.69982 4.94322 3.34874 5.79107 3.34874 6.67513V10.8418C3.34874 11.7258 3.69982 12.5737 4.32473 13.1988C4.94965 13.8239 5.79722 14.1751 6.68098 14.1751C6.90193 14.1751 7.11382 14.2629 7.27005 14.4192C7.42628 14.5755 7.51405 14.7874 7.51405 15.0085V16.5751C7.51332 16.5956 7.51841 16.6159 7.52873 16.6336C7.53905 16.6513 7.55418 16.6657 7.57236 16.6751C7.639 16.6751 7.67233 16.6751 7.68899 16.6751L10.588 14.7418C11.1302 14.3773 11.7675 14.1802 12.4208 14.1751H13.3455C14.2292 14.1751 15.0768 13.8239 15.7017 13.1988C16.3266 12.5737 16.6777 11.7258 16.6777 10.8418V6.67513C16.6773 5.98565 16.4632 5.31327 16.0648 4.75061C15.6665 4.18795 15.1035 3.76271 14.4534 3.53346C14.0976 3.40725 13.723 3.34244 13.3455 3.34179H6.68098Z" fill="#99999D"/>
<path d="M13.3455 7.91667H6.68096C6.46002 7.91667 6.24813 7.82887 6.0919 7.67259C5.93567 7.51631 5.8479 7.30435 5.8479 7.08333C5.8479 6.86232 5.93567 6.65036 6.0919 6.49408C6.24813 6.3378 6.46002 6.25 6.68096 6.25H13.3455C13.5664 6.25 13.7783 6.3378 13.9345 6.49408C14.0907 6.65036 14.1785 6.86232 14.1785 7.08333C14.1785 7.30435 14.0907 7.51631 13.9345 7.67259C13.7783 7.82887 13.5664 7.91667 13.3455 7.91667Z" fill="#99999D"/>
<path d="M10.8463 11.25H6.68096C6.46002 11.25 6.24813 11.1622 6.0919 11.006C5.93567 10.8497 5.8479 10.6377 5.8479 10.4167C5.8479 10.1957 5.93567 9.98373 6.0919 9.82745C6.24813 9.67117 6.46002 9.58337 6.68096 9.58337H10.8463C11.0672 9.58337 11.2791 9.67117 11.4353 9.82745C11.5916 9.98373 11.6793 10.1957 11.6793 10.4167C11.6793 10.6377 11.5916 10.8497 11.4353 11.006C11.2791 11.1622 11.0672 11.25 10.8463 11.25Z" fill="#99999D"/>
</svg>
