<svg width="21" height="20" viewBox="0 0 21 20" fill="none" xmlns="http://www.w3.org/2000/svg">
<path fill-rule="evenodd" clip-rule="evenodd" d="M10.9837 3.33335C7.30299 3.33335 4.3192 6.31812 4.3192 10C4.3192 13.6819 7.30299 16.6667 10.9837 16.6667C14.6644 16.6667 17.6482 13.6819 17.6482 10C17.6482 6.31812 14.6644 3.33335 10.9837 3.33335ZM2.65308 10C2.65308 5.39765 6.38282 1.66669 10.9837 1.66669C15.5846 1.66669 19.3143 5.39765 19.3143 10C19.3143 14.6024 15.5846 18.3334 10.9837 18.3334C6.38282 18.3334 2.65308 14.6024 2.65308 10ZM7.65144 7.50002C7.65144 7.03978 8.02442 6.66669 8.4845 6.66669H8.49284C8.95292 6.66669 9.3259 7.03978 9.3259 7.50002C9.3259 7.96026 8.95292 8.33335 8.49284 8.33335H8.4845C8.02442 8.33335 7.65144 7.96026 7.65144 7.50002ZM12.6498 7.50002C12.6498 7.03978 13.0228 6.66669 13.4829 6.66669H13.4912C13.9513 6.66669 14.3243 7.03978 14.3243 7.50002C14.3243 7.96026 13.9513 8.33335 13.4912 8.33335H13.4829C13.0228 8.33335 12.6498 7.96026 12.6498 7.50002ZM6.25881 10.3034C6.41706 10.1113 6.65286 10 6.90169 10H15.0657C15.3155 10 15.5522 10.1122 15.7104 10.3056C15.8686 10.499 15.9317 10.7532 15.8823 10.9982C15.6854 11.9743 15.2016 12.8692 14.493 13.5685C13.7843 14.2678 12.8831 14.7395 11.9048 14.9232C10.9265 15.1069 9.91567 14.9942 9.00179 14.5996C8.08848 14.2052 7.31359 13.5472 6.77627 12.7098C6.43797 12.1869 6.20296 11.604 6.08398 10.9926C6.03643 10.7483 6.10056 10.4955 6.25881 10.3034ZM8.09084 11.6667C8.11792 11.7136 8.14622 11.7598 8.1757 11.8053L8.17776 11.8085L8.17775 11.8085C8.53598 12.3673 9.05284 12.8063 9.6621 13.0694C10.2714 13.3325 10.9453 13.4076 11.5975 13.2851C12.2497 13.1627 12.8505 12.8482 13.3229 12.382C13.5393 12.1685 13.7242 11.9276 13.8737 11.6667H8.09084Z" fill="#32323A"/>
</svg>
