<svg width="21" height="20" viewBox="0 0 21 20" fill="none" xmlns="http://www.w3.org/2000/svg">
<path d="M14.6305 3.40841V2.50008C14.6305 2.27907 14.5427 2.06711 14.3865 1.91083C14.2303 1.75455 14.0184 1.66675 13.7974 1.66675C13.5765 1.66675 13.3646 1.75455 13.2084 1.91083C13.0521 2.06711 12.9644 2.27907 12.9644 2.50008V3.33341H7.96601V2.50008C7.96601 2.27907 7.87824 2.06711 7.72201 1.91083C7.56579 1.75455 7.35389 1.66675 7.13295 1.66675C6.91201 1.66675 6.70012 1.75455 6.54389 1.91083C6.38766 2.06711 6.29989 2.27907 6.29989 2.50008V3.40841C5.13605 3.6052 4.07939 4.20765 3.31702 5.10906C2.55465 6.01047 2.13578 7.15268 2.13458 8.33342V13.3334C2.13458 14.6595 2.6612 15.9313 3.59857 16.8689C4.53595 17.8066 5.8073 18.3334 7.13295 18.3334H13.7974C15.1231 18.3334 16.3944 17.8066 17.3318 16.8689C18.2692 15.9313 18.7958 14.6595 18.7958 13.3334V8.33342C18.7946 7.15268 18.3757 6.01047 17.6134 5.10906C16.851 4.20765 15.7943 3.6052 14.6305 3.40841ZM17.1297 13.3334C17.1297 14.2175 16.7786 15.0653 16.1537 15.6904C15.5288 16.3156 14.6812 16.6667 13.7974 16.6667H7.13295C6.24918 16.6667 5.40161 16.3156 4.77669 15.6904C4.15178 15.0653 3.80071 14.2175 3.80071 13.3334V8.33342C3.80126 7.59485 4.047 6.87739 4.49934 6.29368C4.95169 5.70996 5.58501 5.29305 6.29989 5.10841V5.83342C6.29989 6.05443 6.38766 6.26639 6.54389 6.42267C6.70012 6.57895 6.91201 6.66675 7.13295 6.66675C7.35389 6.66675 7.56579 6.57895 7.72201 6.42267C7.87824 6.26639 7.96601 6.05443 7.96601 5.83342V5.00008H12.9644V5.83342C12.9644 6.05443 13.0521 6.26639 13.2084 6.42267C13.3646 6.57895 13.5765 6.66675 13.7974 6.66675C14.0184 6.66675 14.2303 6.57895 14.3865 6.42267C14.5427 6.26639 14.6305 6.05443 14.6305 5.83342V5.10841C15.3454 5.29305 15.9787 5.70996 16.431 6.29368C16.8834 6.87739 17.1291 7.59485 17.1297 8.33342V13.3334Z" fill="white"/>
<path fill-rule="evenodd" clip-rule="evenodd" d="M6.29987 10.0001C6.29987 9.53984 6.67284 9.16675 7.13293 9.16675H13.7974C14.2575 9.16675 14.6305 9.53984 14.6305 10.0001C14.6305 10.4603 14.2575 10.8334 13.7974 10.8334H7.13293C6.67284 10.8334 6.29987 10.4603 6.29987 10.0001Z" fill="white"/>
<path fill-rule="evenodd" clip-rule="evenodd" d="M6.29987 13.3333C6.29987 12.8731 6.67284 12.5 7.13293 12.5H11.2982C11.7583 12.5 12.1313 12.8731 12.1313 13.3333C12.1313 13.7936 11.7583 14.1667 11.2982 14.1667H7.13293C6.67284 14.1667 6.29987 13.7936 6.29987 13.3333Z" fill="white"/>
</svg>
