<svg width="20" height="20" viewBox="0 0 20 20" fill="none" xmlns="http://www.w3.org/2000/svg">
<path d="M9.94445 1.66663C8.29681 1.66663 6.68617 2.15537 5.31621 3.07105C3.94625 3.98672 2.87849 5.28821 2.24796 6.81093C1.61744 8.33365 1.45247 10.0092 1.77391 11.6257C2.09534 13.2422 2.88876 14.7271 4.05382 15.8925C5.21887 17.058 6.70324 17.8516 8.31922 18.1732C9.93521 18.4947 11.6102 18.3297 13.1324 17.699C14.6547 17.0682 15.9557 16.0001 16.8711 14.6297C17.7865 13.2593 18.2751 11.6481 18.2751 9.99996C18.2751 7.78982 17.3974 5.67021 15.8351 4.1074C14.2728 2.5446 12.1539 1.66663 9.94445 1.66663ZM16.5589 9.16663H13.7349C13.5624 7.18703 12.9105 5.27926 11.8355 3.60829C13.0776 3.97544 14.1858 4.69667 15.0247 5.68381C15.8636 6.67095 16.3967 7.88122 16.5589 9.16663ZM12.0687 9.16663H7.85346C8.04446 7.21957 8.76792 5.36277 9.94445 3.79996C11.1291 5.36126 11.8638 7.21726 12.0687 9.16663ZM7.85346 10.8333H12.0854C11.8826 12.7832 11.1477 14.6397 9.96111 16.2C8.77862 14.639 8.04934 12.782 7.85346 10.8333ZM8.07006 3.60829C6.99787 5.27934 6.35144 7.18779 6.18734 9.16663H3.32994C3.49217 7.88122 4.02532 6.67095 4.86419 5.68381C5.70306 4.69667 6.8113 3.97544 8.05339 3.60829H8.07006ZM3.32994 10.8333H6.18734C6.35486 12.8102 6.99795 14.7172 8.06173 16.3916C6.81808 16.0259 5.70806 15.3052 4.86763 14.318C4.02719 13.3307 3.49281 12.1197 3.32994 10.8333ZM11.8438 16.3916C12.915 14.7194 13.5639 12.812 13.7349 10.8333H16.5589C16.3973 12.1177 15.8654 13.3272 15.0281 14.3142C14.1908 15.3013 13.0844 16.0231 11.8438 16.3916Z" fill="#32323A"/>
</svg>
