<svg width="16" height="16" viewBox="0 0 16 16" fill="none" xmlns="http://www.w3.org/2000/svg">
<path d="M3.34884 7.99979C3.34884 7.4907 3.42326 6.98161 3.6093 6.50888L0.855814 4.43616C0.297674 5.52706 0 6.72706 0 7.99979C0 9.27251 0.297674 10.4725 0.855814 11.5271L3.6093 9.45433C3.42326 9.01797 3.34884 8.50888 3.34884 7.99979Z" fill="#FBBC05"/>
<path d="M8.18607 3.27272C9.33956 3.27272 10.3814 3.67272 11.2 4.32726L13.5814 2C12.1303 0.763635 10.2698 0 8.18607 0C4.94886 0 2.15816 1.81818 0.855835 4.47272L3.60932 6.54544C4.24188 4.61817 6.02793 3.27272 8.18607 3.27272Z" fill="#EA4335"/>
<path d="M8.18607 12.7272C6.02793 12.7272 4.24188 11.3817 3.60932 9.49084L0.855835 11.5636C2.15816 14.1817 4.94886 15.9999 8.18607 15.9999C10.1954 15.9999 12.093 15.309 13.507 13.9999L10.9023 12.0363C10.1582 12.4727 9.22793 12.7272 8.18607 12.7272Z" fill="#34A853"/>
<path d="M8.18616 6.54553V9.63643H12.5769C12.3536 10.691 11.7582 11.491 10.9024 12.0364L13.5071 14.0001C14.9955 12.6182 16.0001 10.6183 16.0001 8.00007C16.0001 7.52735 15.9257 7.01826 15.8141 6.54553H8.18616Z" fill="#4285F4"/>
</svg>
