<svg width="21" height="20" viewBox="0 0 21 20" fill="none" xmlns="http://www.w3.org/2000/svg">
<path d="M10.8604 1.66675C9.21276 1.66675 7.60212 2.15549 6.23216 3.07117C4.8622 3.98685 3.79444 5.28834 3.16392 6.81105C2.53339 8.33377 2.36842 10.0093 2.68986 11.6258C3.0113 13.2423 3.80471 14.7272 4.96977 15.8926C6.13483 17.0581 7.6192 17.8517 9.23518 18.1733C10.8512 18.4948 12.5262 18.3298 14.0484 17.6991C15.5706 17.0683 16.8717 16.0002 17.7871 14.6298C18.7024 13.2594 19.191 11.6483 19.191 10.0001C19.191 8.90573 18.9755 7.8221 18.5569 6.81105C18.1382 5.80001 17.5246 4.88135 16.751 4.10752C15.9775 3.3337 15.0591 2.71987 14.0484 2.30109C13.0377 1.8823 11.9544 1.66675 10.8604 1.66675ZM14.6175 8.33342L10.0273 12.8751C9.9499 12.9532 9.85776 13.0152 9.75624 13.0575C9.65473 13.0998 9.54584 13.1216 9.43587 13.1216C9.32589 13.1216 9.21701 13.0998 9.11549 13.0575C9.01397 13.0152 8.92184 12.9532 8.84439 12.8751L6.77007 10.8334C6.61491 10.6773 6.52782 10.4661 6.52782 10.2459C6.52782 10.0258 6.61491 9.81455 6.77007 9.65842C6.84751 9.58031 6.93965 9.51831 7.04117 9.47601C7.14268 9.4337 7.25157 9.41192 7.36154 9.41192C7.47152 9.41192 7.5804 9.4337 7.68192 9.47601C7.78344 9.51831 7.87557 9.58031 7.95302 9.65842L9.4442 11.1501L13.4346 7.15842C13.512 7.08031 13.6041 7.01831 13.7057 6.97601C13.8072 6.9337 13.9161 6.91192 14.026 6.91192C14.136 6.91192 14.2449 6.9337 14.3464 6.97601C14.4479 7.01831 14.5401 7.08031 14.6175 7.15842C14.7727 7.31455 14.8598 7.52576 14.8598 7.74591C14.8598 7.96607 14.7727 8.17728 14.6175 8.33342Z" fill="#27AE60"/>
</svg>
