<svg width="24" height="24" viewBox="0 0 24 24" fill="none" xmlns="http://www.w3.org/2000/svg">
<path d="M16.0833 13.1667C15.439 13.1667 14.9167 12.6444 14.9167 12C14.9167 11.3557 15.439 10.8334 16.0833 10.8334C16.7277 10.8334 17.25 11.3557 17.25 12C17.25 12.6444 16.7277 13.1667 16.0833 13.1667Z" fill="#99999D"/>
<path d="M7.91667 13.1667C7.27233 13.1667 6.75 12.6444 6.75 12C6.75 11.3557 7.27234 10.8334 7.91667 10.8334C8.561 10.8334 9.08333 11.3557 9.08333 12C9.08333 12.6444 8.561 13.1667 7.91667 13.1667Z" fill="#99999D"/>
<path d="M12 13.1667C11.3557 13.1667 10.8333 12.6444 10.8333 12C10.8333 11.3557 11.3557 10.8334 12 10.8334C12.6443 10.8334 13.1667 11.3557 13.1667 12C13.1667 12.6444 12.6443 13.1667 12 13.1667Z" fill="#99999D"/>
</svg>
