<svg width="21" height="20" viewBox="0 0 21 20" fill="none" xmlns="http://www.w3.org/2000/svg">
<path fill-rule="evenodd" clip-rule="evenodd" d="M4.91524 3.33341C4.31713 3.33341 3.83226 3.81844 3.83226 4.41675V6.40841C3.83226 7.00672 4.31713 7.49175 4.91524 7.49175H6.90626C7.50437 7.49175 7.98924 7.00672 7.98924 6.40841V4.41675C7.98924 3.81844 7.50437 3.33341 6.90626 3.33341H4.91524ZM2.16614 4.41675C2.16614 2.89796 3.39695 1.66675 4.91524 1.66675H6.90626C8.42454 1.66675 9.65536 2.89796 9.65536 4.41675V6.40841C9.65536 7.9272 8.42454 9.15841 6.90626 9.15841H4.91524C3.39695 9.15841 2.16614 7.9272 2.16614 6.40841V4.41675Z" fill="white"/>
<path fill-rule="evenodd" clip-rule="evenodd" d="M14.0956 3.33341C13.4975 3.33341 13.0126 3.81844 13.0126 4.41675V6.40008C13.0126 6.99839 13.4975 7.48342 14.0956 7.48342H16.0783C16.6764 7.48342 17.1613 6.99839 17.1613 6.40008V4.41675C17.1613 3.81844 16.6764 3.33341 16.0783 3.33341H14.0956ZM11.3465 4.41675C11.3465 2.89797 12.5773 1.66675 14.0956 1.66675H16.0783C17.5966 1.66675 18.8274 2.89797 18.8274 4.41675V6.40008C18.8274 7.91886 17.5966 9.15008 16.0783 9.15008H14.0956C12.5773 9.15008 11.3465 7.91886 11.3465 6.40008V4.41675Z" fill="white"/>
<path fill-rule="evenodd" clip-rule="evenodd" d="M4.91524 12.4999C4.31713 12.4999 3.83226 12.9849 3.83226 13.5833V15.5833C3.83226 16.1816 4.31713 16.6666 4.91524 16.6666H6.91459C7.5127 16.6666 7.99757 16.1816 7.99757 15.5833V13.5833C7.99757 12.9849 7.5127 12.4999 6.91459 12.4999H4.91524ZM2.16614 13.5833C2.16614 12.0645 3.39695 10.8333 4.91524 10.8333H6.91459C8.43287 10.8333 9.66369 12.0645 9.66369 13.5833V15.5833C9.66369 17.102 8.43287 18.3333 6.91459 18.3333H4.91524C3.39695 18.3333 2.16614 17.102 2.16614 15.5833V13.5833Z" fill="white"/>
<path fill-rule="evenodd" clip-rule="evenodd" d="M14.0789 12.4916C13.4808 12.4916 12.9959 12.9766 12.9959 13.575V15.575C12.9959 16.1733 13.4808 16.6583 14.0789 16.6583H16.0782C16.6763 16.6583 17.1612 16.1733 17.1612 15.575V13.575C17.1612 12.9766 16.6763 12.4916 16.0782 12.4916H14.0789ZM11.3298 13.575C11.3298 12.0562 12.5606 10.825 14.0789 10.825H16.0782C17.5965 10.825 18.8273 12.0562 18.8273 13.575V15.575C18.8273 17.0937 17.5965 18.325 16.0782 18.325H14.0789C12.5606 18.325 11.3298 17.0937 11.3298 15.575V13.575Z" fill="white"/>
</svg>
