<svg width="24" height="24" viewBox="0 0 24 24" fill="none" xmlns="http://www.w3.org/2000/svg">
<path fill-rule="evenodd" clip-rule="evenodd" d="M10.1156 16.7838C10.419 16.5754 10.8339 16.6524 11.0423 16.9559C11.1186 17.0671 11.2231 17.1549 11.3441 17.2105C11.3529 17.2146 11.3616 17.2188 11.3702 17.2232C11.5801 17.3309 11.8205 17.3607 12.0497 17.3078C12.2789 17.2549 12.4832 17.1224 12.6264 16.9322C12.8479 16.6381 13.2657 16.5793 13.5597 16.8009C13.8537 17.0224 13.9125 17.4404 13.691 17.7345C13.36 18.1741 12.8853 18.4833 12.3494 18.607C11.8181 18.7297 11.2611 18.6619 10.7747 18.4161C10.4398 18.2594 10.153 18.0158 9.94356 17.7108C9.73519 17.4073 9.81222 16.9923 10.1156 16.7838Z" fill="#707075"/>
<path fill-rule="evenodd" clip-rule="evenodd" d="M11.8258 6.66665C10.9421 6.66665 10.0945 7.01784 9.46958 7.64296C8.84466 8.26808 8.49359 9.11592 8.49359 9.99998V10.5066C8.49296 11.2137 8.21169 11.8921 7.71162 12.3917L7.47199 12.6314C7.27327 12.8299 7.16108 13.0995 7.16069 13.3804V13.6066C7.16069 13.8878 7.27233 14.1574 7.47105 14.3562C7.66978 14.555 7.9393 14.6666 8.22034 14.6666H15.4313C15.7124 14.6666 15.9819 14.555 16.1806 14.3562C16.3769 14.1598 16.4883 13.8943 16.4909 13.6169C16.4818 13.3912 16.4004 13.1743 16.2586 12.9983L16.2495 12.9867L15.7401 12.3249C15.3647 11.8543 15.1596 11.2705 15.1581 10.6683L15.1581 10.6666V9.99998C15.1581 9.11592 14.807 8.26808 14.1821 7.64296C13.5572 7.01784 12.7096 6.66665 11.8258 6.66665ZM8.52708 6.70015C9.40196 5.82498 10.5886 5.33331 11.8258 5.33331C13.0631 5.33331 14.2497 5.82498 15.1246 6.70015C15.9995 7.57532 16.491 8.7623 16.491 9.99998V10.6657C16.4919 10.9677 16.5953 11.2605 16.7842 11.4961L16.7924 11.5066L17.3015 12.1679C17.6245 12.5715 17.8077 13.0693 17.8236 13.5862C17.8238 13.593 17.8239 13.5998 17.8239 13.6066C17.8239 14.2414 17.5718 14.8502 17.1231 15.299C16.6744 15.7478 16.0659 16 15.4313 16H8.22034C7.5858 16 6.97724 15.7478 6.52855 15.299C6.07986 14.8502 5.82779 14.2414 5.82779 13.6066L5.82779 13.3793C5.82848 12.7448 6.08099 12.1365 6.52982 11.6882C6.52981 11.6883 6.52983 11.6882 6.52982 11.6882L6.76941 11.4486C7.01939 11.1988 7.16031 10.8597 7.16069 10.5063V9.99998C7.16069 8.7623 7.65219 7.57532 8.52708 6.70015Z" fill="#707075"/>
</svg>
