<svg width="16" height="16" viewBox="0 0 16 16" fill="none" xmlns="http://www.w3.org/2000/svg">
<path fill-rule="evenodd" clip-rule="evenodd" d="M6.53481 2.96085C6.53453 2.96103 6.53426 2.96121 6.53398 2.96139L3.76842 4.76899C3.40706 5.00458 3.11018 5.32666 2.90471 5.70604C2.69924 6.08542 2.59168 6.5101 2.59177 6.94158V11.0186C2.59177 11.5343 2.79657 12.0288 3.1611 12.3935C3.52564 12.7582 4.02005 12.963 4.53558 12.963H11.0149C11.5305 12.963 12.0249 12.7582 12.3894 12.3935C12.754 12.0288 12.9588 11.5343 12.9588 11.0186V6.94172C12.9588 6.51024 12.8513 6.08542 12.6458 5.70604C12.4403 5.32666 12.1435 5.00458 11.7821 4.76899L11.7815 4.76857L9.01655 2.96139C9.01626 2.96121 9.01597 2.96102 9.01568 2.96083C8.64628 2.72134 8.21548 2.5939 7.77526 2.5939C7.33504 2.5939 6.90422 2.72135 6.53481 2.96085ZM5.8287 1.8739C6.4083 1.49777 7.08439 1.29761 7.77526 1.29761C8.46614 1.29761 9.14223 1.49777 9.72183 1.8739L9.7236 1.87505L12.4896 3.68297C12.4895 3.68285 12.4898 3.68309 12.4896 3.68297C12.4897 3.68299 12.4903 3.68337 12.4903 3.68339C13.0321 4.03673 13.4771 4.5197 13.7852 5.08855C14.0934 5.65758 14.2547 6.29455 14.2546 6.94172C14.2546 6.94168 14.2546 6.94177 14.2546 6.94172V11.0186C14.2546 11.8781 13.9133 12.7024 13.3057 13.3101C12.6982 13.9179 11.8742 14.2593 11.0149 14.2593H4.53558C3.67636 14.2593 2.85234 13.9179 2.24478 13.3101C1.63722 12.7024 1.2959 11.8781 1.2959 11.0186V6.94186C1.2959 6.94181 1.2959 6.94191 1.2959 6.94186C1.29578 6.29469 1.45713 5.65758 1.76531 5.08855C2.07345 4.51959 2.51866 4.03653 3.06057 3.68317C3.06047 3.68323 3.06068 3.6831 3.06057 3.68317L5.8287 1.8739Z" fill="#99999D"/>
<path fill-rule="evenodd" clip-rule="evenodd" d="M5.18347 10.3703C5.18347 10.0124 5.47356 9.72217 5.83141 9.72217H9.71903C10.0769 9.72217 10.367 10.0124 10.367 10.3703C10.367 10.7283 10.0769 11.0185 9.71903 11.0185H5.83141C5.47356 11.0185 5.18347 10.7283 5.18347 10.3703Z" fill="#99999D"/>
</svg>
