<svg width="21" height="20" viewBox="0 0 21 20" fill="none" xmlns="http://www.w3.org/2000/svg">
<path d="M14.3094 1.66669H7.64491C6.31926 1.66669 5.04791 2.19347 4.11053 3.13116C3.17316 4.06884 2.64655 5.3406 2.64655 6.66669V13.3334C2.64655 14.6594 3.17316 15.9312 4.11053 16.8689C5.04791 17.8066 6.31926 18.3334 7.64491 18.3334H14.3094C15.6351 18.3334 16.9064 17.8066 17.8438 16.8689C18.7812 15.9312 19.3078 14.6594 19.3078 13.3334V6.66669C19.3078 5.3406 18.7812 4.06884 17.8438 3.13116C16.9064 2.19347 15.6351 1.66669 14.3094 1.66669ZM4.31267 6.66669C4.31267 5.78263 4.66374 4.93478 5.28866 4.30966C5.91358 3.68454 6.76115 3.33335 7.64491 3.33335H14.3094C15.1932 3.33335 16.0407 3.68454 16.6657 4.30966C17.2906 4.93478 17.6416 5.78263 17.6416 6.66669V13.3334C17.6405 13.5489 17.6182 13.7638 17.575 13.975L14.6426 12.1167C14.1738 11.8084 13.625 11.6442 13.064 11.6442C12.5029 11.6442 11.9542 11.8084 11.4853 12.1167L11.1854 12.3167C11.0232 12.4293 10.8285 12.4854 10.6313 12.4763C10.4341 12.4673 10.2453 12.3936 10.0941 12.2667L8.08643 10.6C7.61233 10.2073 7.01957 9.98627 6.40419 9.97266C5.78881 9.95904 5.18687 10.1537 4.69588 10.525L4.31267 10.8334V6.66669ZM14.3094 16.6667H7.64491C6.76115 16.6667 5.91358 16.3155 5.28866 15.6904C4.66374 15.0653 4.31267 14.2174 4.31267 13.3334V12.9167L5.70388 11.875C5.89038 11.7249 6.12259 11.643 6.362 11.643C6.6014 11.643 6.83361 11.7249 7.02012 11.875L9.02779 13.5417C9.45544 13.8978 9.98692 14.1057 10.5426 14.1342C11.0983 14.1627 11.6483 14.0104 12.1101 13.7L12.41 13.5C12.6069 13.3671 12.839 13.2961 13.0765 13.2961C13.314 13.2961 13.5461 13.3671 13.7429 13.5L16.8502 15.4584C16.5404 15.8329 16.1525 16.1352 15.7136 16.3439C15.2746 16.5526 14.7954 16.6628 14.3094 16.6667Z" fill="#99999D"/>
<path d="M13.0598 9.99998C12.5075 9.99998 11.9777 9.78049 11.5872 9.38979C11.1966 8.99909 10.9772 8.46918 10.9772 7.91665C10.9772 7.36411 11.1966 6.83421 11.5872 6.44351C11.9777 6.0528 12.5075 5.83331 13.0598 5.83331C13.6122 5.83331 14.1419 6.0528 14.5325 6.44351C14.9231 6.83421 15.1425 7.36411 15.1425 7.91665C15.1425 8.46918 14.9231 8.99909 14.5325 9.38979C14.1419 9.78049 13.6122 9.99998 13.0598 9.99998ZM13.0598 7.49998C12.9494 7.49998 12.8434 7.54388 12.7653 7.62202C12.6872 7.70016 12.6433 7.80614 12.6433 7.91665C12.6433 8.02715 12.6872 8.13313 12.7653 8.21127C12.8434 8.28941 12.9494 8.33331 13.0598 8.33331C13.1703 8.33331 13.2762 8.28941 13.3544 8.21127C13.4325 8.13313 13.4764 8.02715 13.4764 7.91665C13.4764 7.80614 13.4325 7.70016 13.3544 7.62202C13.2762 7.54388 13.1703 7.49998 13.0598 7.49998Z" fill="#99999D"/>
</svg>
