<svg width="20" height="20" viewBox="0 0 20 20" fill="none" xmlns="http://www.w3.org/2000/svg">
<path fill-rule="evenodd" clip-rule="evenodd" d="M9.95083 1.66663H10.0492C11.5698 1.66661 12.779 1.6666 13.742 1.77095C14.731 1.8781 15.5589 2.10325 16.2722 2.62154C16.6967 2.92994 17.07 3.30323 17.3784 3.7277C17.8967 4.44107 18.1219 5.26891 18.229 6.25792C18.3333 7.22097 18.3333 8.43009 18.3333 9.95077V10.0491C18.3333 11.5698 18.3333 12.779 18.229 13.742C18.1219 14.731 17.8967 15.5588 17.3784 16.2722C17.07 16.6967 16.6967 17.07 16.2722 17.3784C15.5589 17.8967 14.731 18.1218 13.742 18.229C12.779 18.3333 11.5699 18.3333 10.0492 18.3333H9.9508C8.43012 18.3333 7.221 18.3333 6.25795 18.229C5.26894 18.1218 4.4411 17.8967 3.72773 17.3784C3.30326 17.07 2.92997 16.6967 2.62157 16.2722C2.10328 15.5588 1.87813 14.731 1.77098 13.742C1.66664 12.7789 1.66664 11.5698 1.66666 10.0491V9.9508C1.66664 8.4301 1.66664 7.22097 1.77098 6.25792C1.87813 5.26891 2.10328 4.44107 2.62157 3.7277C2.92997 3.30323 3.30326 2.92994 3.72773 2.62154C4.4411 2.10325 5.26894 1.8781 6.25795 1.77095C7.221 1.6666 8.43013 1.66661 9.95083 1.66663ZM6.43747 3.42791C5.59027 3.5197 5.08928 3.69243 4.70737 3.9699C4.42439 4.1755 4.17553 4.42436 3.96993 4.70734C3.69246 5.08925 3.51973 5.59024 3.42795 6.43744C3.33447 7.30023 3.33332 8.41901 3.33332 9.99996C3.33332 11.5809 3.33447 12.6997 3.42795 13.5625C3.51973 14.4097 3.69246 14.9107 3.96993 15.2926C4.17553 15.5756 4.42439 15.8244 4.70737 16.03C5.08928 16.3075 5.59027 16.4802 6.43747 16.572C7.30026 16.6655 8.41904 16.6666 9.99999 16.6666C11.5809 16.6666 12.6997 16.6655 13.5625 16.572C14.4097 16.4802 14.9107 16.3075 15.2926 16.03C15.5756 15.8244 15.8244 15.5756 16.03 15.2926C16.3075 14.9107 16.4802 14.4097 16.572 13.5625C16.6655 12.6997 16.6667 11.5809 16.6667 9.99996C16.6667 8.41901 16.6655 7.30023 16.572 6.43744C16.4802 5.59024 16.3075 5.08925 16.03 4.70734C15.8244 4.42436 15.5756 4.1755 15.2926 3.9699C14.9107 3.69243 14.4097 3.5197 13.5625 3.42791C12.6997 3.33444 11.5809 3.33329 9.99999 3.33329C8.41904 3.33329 7.30026 3.33444 6.43747 3.42791Z" fill="white"/>
<path fill-rule="evenodd" clip-rule="evenodd" d="M9.99999 5.83337C10.4602 5.83337 10.8333 6.20647 10.8333 6.66671V13.3334C10.8333 13.7936 10.4602 14.1667 9.99999 14.1667C9.53975 14.1667 9.16666 13.7936 9.16666 13.3334V6.66671C9.16666 6.20647 9.53975 5.83337 9.99999 5.83337Z" fill="white"/>
<path fill-rule="evenodd" clip-rule="evenodd" d="M6.66668 7.5C7.12691 7.5 7.50001 7.8731 7.50001 8.33333V13.3333C7.50001 13.7936 7.12691 14.1667 6.66668 14.1667C6.20644 14.1667 5.83334 13.7936 5.83334 13.3333V8.33333C5.83334 7.8731 6.20644 7.5 6.66668 7.5Z" fill="white"/>
<path fill-rule="evenodd" clip-rule="evenodd" d="M13.3333 9.16663C13.7936 9.16663 14.1667 9.53972 14.1667 9.99996V13.3333C14.1667 13.7935 13.7936 14.1666 13.3333 14.1666C12.8731 14.1666 12.5 13.7935 12.5 13.3333V9.99996C12.5 9.53972 12.8731 9.16663 13.3333 9.16663Z" fill="white"/>
</svg>
