<svg width="18" height="18" viewBox="0 0 18 18" fill="none" xmlns="http://www.w3.org/2000/svg">
<path fill-rule="evenodd" clip-rule="evenodd" d="M5.72277 6.90185C6.02491 7.18508 6.04031 7.65971 5.75716 7.96195L4.62864 9.16657C4.62426 9.17124 4.61983 9.17585 4.61534 9.18041C4.05937 9.74423 3.74878 10.5013 3.74878 11.2888C3.74878 12.0739 4.05741 12.8287 4.61008 13.3919C5.17694 13.9415 5.93847 14.25 6.73246 14.25C7.52815 14.25 8.29125 13.9402 8.85849 13.3884L10.0306 12.2308C10.3252 11.9398 10.7999 11.9428 11.0908 12.2376C11.3818 12.5323 11.3787 13.0072 11.0841 13.2982L9.9065 14.4612C9.05812 15.2878 7.91847 15.75 6.73246 15.75C5.54644 15.75 4.4068 15.2878 3.55842 14.4612L3.54778 14.4506C2.716 13.6071 2.24927 12.472 2.24927 11.2888C2.24927 10.109 2.71337 8.97699 3.54075 8.13419L4.66301 6.93625C4.94616 6.63401 5.42063 6.61861 5.72277 6.90185Z" fill="#32323A"/>
<path fill-rule="evenodd" clip-rule="evenodd" d="M11.739 6.18219C12.0318 6.47509 12.0318 6.94996 11.739 7.24285L7.24042 11.7429C6.94762 12.0357 6.47291 12.0357 6.18011 11.7429C5.88731 11.45 5.88731 10.9751 6.18011 10.6822L10.6786 6.18219C10.9714 5.8893 11.4462 5.8893 11.739 6.18219Z" fill="#32323A"/>
<path fill-rule="evenodd" clip-rule="evenodd" d="M9.13566 4.61168L7.96359 5.76925C7.66893 6.06027 7.19422 6.05724 6.9033 5.76248C6.61237 5.46772 6.61541 4.99286 6.91007 4.70184L8.08764 3.53883C8.93602 2.7122 10.0757 2.25 11.2617 2.25C12.4477 2.25 13.5873 2.71221 14.4357 3.53884L14.4464 3.54941C15.2781 4.39295 15.7449 5.52804 15.7449 6.71121C15.7449 7.89104 15.2808 9.02305 14.4534 9.86585L13.3311 11.0638C13.048 11.366 12.5735 11.3814 12.2714 11.0982C11.9692 10.815 11.9538 10.3403 12.237 10.0381L13.3655 8.83347C13.3699 8.82881 13.3743 8.82419 13.3788 8.81964C13.9348 8.25581 14.2454 7.49875 14.2454 6.71121C14.2454 5.92616 13.9367 5.17139 13.3841 4.60813C12.8172 4.05853 12.0557 3.75 11.2617 3.75C10.466 3.75 9.7029 4.05986 9.13566 4.61168Z" fill="#32323A"/>
</svg>
