<svg width="24" height="23" viewBox="0 0 24 23" fill="none" xmlns="http://www.w3.org/2000/svg">
<path fill-rule="evenodd" clip-rule="evenodd" d="M11.9964 8.44072C10.9791 8.44072 10.1544 9.26568 10.1544 10.2833C10.1544 11.3009 10.9791 12.1259 11.9964 12.1259C13.0137 12.1259 13.8384 11.3009 13.8384 10.2833C13.8384 9.26568 13.0137 8.44072 11.9964 8.44072ZM8.30316 10.2833C8.30316 8.24293 9.95668 6.58887 11.9964 6.58887C14.0361 6.58887 15.6896 8.24293 15.6896 10.2833C15.6896 12.3237 14.0361 13.9778 11.9964 13.9778C9.95668 13.9778 8.30316 12.3237 8.30316 10.2833Z" fill="#707075"/>
<path fill-rule="evenodd" clip-rule="evenodd" d="M11.9964 3.79253C10.2779 3.79253 8.6299 4.47539 7.41478 5.69091C6.19966 6.90642 5.51702 8.55501 5.51702 10.274C5.51702 12.4876 6.73432 14.5838 8.26557 16.1702C9.02269 16.9546 9.82771 17.5831 10.5357 18.0093C11.2859 18.461 11.7974 18.6073 11.9964 18.6073C12.1948 18.6073 12.7061 18.4608 13.4566 18.0083C14.1646 17.5814 14.9697 16.9521 15.727 16.167C17.2587 14.5789 18.4757 12.4827 18.4757 10.274C18.4757 8.55501 17.7931 6.90642 16.578 5.69091C15.3629 4.47539 13.7148 3.79253 11.9964 3.79253ZM6.10575 4.38145C7.66804 2.81865 9.78697 1.94067 11.9964 1.94067C14.2058 1.94067 16.3247 2.81865 17.887 4.38145C19.4493 5.94425 20.327 8.06387 20.327 10.274C20.327 13.1486 18.7672 15.682 17.0592 17.4528C16.1966 18.3471 15.2662 19.0794 14.4123 19.5944C13.6007 20.0837 12.7235 20.4592 11.9964 20.4592C11.2697 20.4592 10.3928 20.0847 9.58105 19.596C8.72702 19.0818 7.7965 18.3503 6.93378 17.4565C5.22534 15.6865 3.66577 13.153 3.66577 10.274C3.66577 8.06387 4.54346 5.94425 6.10575 4.38145Z" fill="#707075"/>
</svg>
