<svg width="115" height="28" viewBox="0 0 115 28" fill="none" xmlns="http://www.w3.org/2000/svg">
<path d="M44.6618 5.25C51.0213 5.25 53.7468 7.9695 53.7468 14.315C53.7468 20.6605 51.0213 23.38 44.6618 23.38C38.3024 23.38 35.5769 20.6605 35.5769 14.315C35.5769 7.9695 38.3024 5.25 44.6618 5.25ZM44.6618 19.705C47.4119 19.705 48.5904 18.088 48.5904 14.315C48.5904 10.542 47.4119 8.925 44.6618 8.925C41.9118 8.925 40.7332 10.542 40.7332 14.315C40.7332 18.088 41.9118 19.705 44.6618 19.705Z" fill="#32323A"/>
<path d="M60.126 19.6805L59.1438 22.9145H55.7063V5.7645H60.126V13.874C60.617 11.473 61.8693 10.4195 64.0546 10.4195C67.4921 10.4195 68.9653 12.3305 68.9653 16.7895C68.9653 21.2485 67.4921 23.1595 64.0546 23.1595C61.8693 23.1595 60.617 22.0815 60.126 19.6805ZM62.3358 19.95C63.8827 19.95 64.5456 18.9945 64.5456 16.765C64.5456 14.5355 63.8827 13.58 62.3358 13.58C60.7889 13.58 60.126 14.5355 60.126 16.765C60.126 18.9945 60.7889 19.95 62.3358 19.95Z" fill="#32323A"/>
<path d="M76.8312 10.395C81.6438 10.395 83.7063 12.306 83.7063 16.765C83.7063 21.224 81.6438 23.135 76.8312 23.135C72.0187 23.135 69.9561 21.224 69.9561 16.765C69.9561 12.306 72.0187 10.395 76.8312 10.395ZM74.3758 16.765C74.3758 18.9945 75.1124 19.95 76.8312 19.95C78.55 19.95 79.2866 18.9945 79.2866 16.765C79.2866 14.5355 78.55 13.58 76.8312 13.58C75.1124 13.58 74.3758 14.5355 74.3758 16.765Z" fill="#32323A"/>
<path d="M94.0093 19.6805C93.5182 22.0815 92.266 23.1595 90.0807 23.1595C86.6432 23.1595 85.1699 21.2485 85.1699 16.7895C85.1699 12.3305 86.6432 10.4195 90.0807 10.4195C92.266 10.4195 93.5182 11.473 94.0093 13.874V5.7645H98.429V22.9145H94.9915L94.0093 19.6805ZM91.7995 19.95C93.3464 19.95 94.0093 18.9945 94.0093 16.765C94.0093 14.5355 93.3464 13.58 91.7995 13.58C90.2526 13.58 89.5896 14.5355 89.5896 16.765C89.5896 18.9945 90.2526 19.95 91.7995 19.95Z" fill="#32323A"/>
<path d="M106.54 10.395C111.353 10.395 113.415 12.306 113.415 16.765C113.415 21.224 111.353 23.135 106.54 23.135C101.728 23.135 99.6653 21.224 99.6653 16.765C99.6653 12.306 101.728 10.395 106.54 10.395ZM104.085 16.765C104.085 18.9945 104.822 19.95 106.54 19.95C108.259 19.95 108.996 18.9945 108.996 16.765C108.996 14.5355 108.259 13.58 106.54 13.58C104.822 13.58 104.085 14.5355 104.085 16.765Z" fill="#32323A"/>
<path d="M10.5467 3.69892C10.9629 4.11424 11.2931 4.6073 11.5184 5.14995C11.7437 5.69259 11.8596 6.27421 11.8596 6.86157C11.8596 7.44893 11.7437 8.03054 11.5184 8.57319C11.2931 9.11584 10.9629 9.6089 10.5467 10.0242C10.2029 10.366 9.93034 10.7722 9.74465 11.2196C9.55895 11.6669 9.4638 12.1465 9.46469 12.6307V15.4111C9.46469 16.3776 9.84948 17.3046 10.5344 17.988C11.2194 18.6714 12.1483 19.0554 13.117 19.0554H15.945C16.4247 19.0562 16.8998 18.9623 17.343 18.7791C17.7862 18.596 18.1887 18.3272 18.5273 17.9882C17.7005 18.8263 17.2378 19.9557 17.2394 21.1318C17.241 22.3078 17.7067 23.4359 18.5359 24.2718C19.365 25.1077 20.4907 25.5841 21.6693 25.5979C22.8478 25.6117 23.9844 25.1617 24.8329 24.3454C22.4721 26.6901 19.2755 28.0044 15.9446 28H13.117C6.14859 28 0.500011 22.3638 0.500011 15.4107V12.6307C0.495504 9.29627 1.81692 6.09626 4.17428 3.73288C4.18009 3.7275 4.18549 3.7217 4.19089 3.7159L4.22367 3.68319C4.22948 3.6778 4.23529 3.67242 4.24069 3.66662C5.08417 2.84217 6.21961 2.38311 7.40034 2.38916C8.58107 2.39521 9.71172 2.86588 10.5467 3.69892Z" fill="#32323A"/>
<path d="M15.945 1.09122e-05H13.1581C9.81628 -0.0043763 6.60923 1.3143 4.24072 3.66664C5.0885 2.84645 6.22639 2.39319 7.40717 2.40535C8.58795 2.41752 9.71623 2.89411 10.5469 3.73159C11.3775 4.56907 11.8434 5.69977 11.8432 6.87803C11.8431 8.05628 11.3771 9.1869 10.5463 10.0242C10.8889 9.68138 11.2961 9.40952 11.7444 9.22431C12.1927 9.03909 12.6733 8.94418 13.1585 8.94503H15.9446C16.9132 8.94503 17.8422 9.32898 18.5272 10.0124C19.2121 10.6958 19.5969 11.6228 19.5969 12.5893V15.4111C19.5976 15.8899 19.5035 16.364 19.3199 16.8063C19.1363 17.2486 18.8668 17.6503 18.5269 17.9882C17.6963 18.8256 17.2303 19.9562 17.2303 21.1345C17.2303 22.3127 17.6962 23.4433 18.5269 24.2807C19.3576 25.1181 20.4858 25.5947 21.6666 25.6068C22.8473 25.6189 23.9852 25.1656 24.8329 24.3454C24.8387 24.3404 24.8441 24.3346 24.8499 24.3292L24.8827 24.2965C24.8881 24.2907 24.8939 24.2853 24.8989 24.2795C27.2488 21.9239 28.566 18.7343 28.5616 15.4107V12.5893C28.5616 5.6362 22.9126 1.09122e-05 15.9446 1.09122e-05H15.945Z" fill="#23CD5D"/>
</svg>
