<svg width="20" height="20" viewBox="0 0 20 20" fill="none" xmlns="http://www.w3.org/2000/svg">
<path fill-rule="evenodd" clip-rule="evenodd" d="M7.65795 4.31829C6.99038 4.10969 6.27413 4.11649 5.61063 4.33772C4.94714 4.55896 4.37006 4.98341 3.96113 5.55097C3.55219 6.11852 3.33214 6.80039 3.33214 7.5C3.33214 9.85634 4.41399 11.7416 5.79499 13.155C7.17594 14.5684 8.80889 15.4577 9.78635 15.8067C9.92391 15.8451 10.0693 15.8451 10.2069 15.8067C11.1844 15.4577 12.8173 14.5684 14.1983 13.155C15.5793 11.7416 16.6611 9.85634 16.6611 7.5C16.6611 6.80039 16.4411 6.11852 16.0321 5.55097C15.6232 4.98341 15.0461 4.55896 14.3826 4.33772C13.7191 4.11649 13.0029 4.10969 12.3353 4.31829C11.6677 4.52689 11.0827 4.94031 10.6631 5.5C10.5057 5.70984 10.2588 5.83333 9.99663 5.83333C9.73442 5.83333 9.48751 5.70984 9.33018 5.5C8.91055 4.94031 8.32552 4.52689 7.65795 4.31829ZM5.08376 2.75658C6.079 2.42473 7.15338 2.41453 8.15473 2.72743C8.83995 2.94155 9.46719 3.29952 9.99663 3.77322C10.5261 3.29952 11.1533 2.94155 11.8385 2.72743C12.8399 2.41453 13.9143 2.42473 14.9095 2.75658C15.9047 3.08844 16.7704 3.72512 17.3838 4.57645C17.9972 5.42778 18.3272 6.45059 18.3272 7.5C18.3272 10.4103 16.9807 12.6917 15.3898 14.32C13.8086 15.9383 11.9394 16.9631 10.7401 17.3859C10.728 17.3902 10.7159 17.3942 10.7036 17.3979C10.2425 17.5369 9.75072 17.5369 9.28964 17.3979C9.27739 17.3942 9.26523 17.3902 9.25317 17.3859C8.05386 16.9631 6.18468 15.9383 4.60348 14.32C3.01254 12.6917 1.66602 10.4103 1.66602 7.5C1.66602 6.45059 1.99609 5.42778 2.6095 4.57645C3.2229 3.72512 4.08853 3.08844 5.08376 2.75658Z" fill="#99999D"/>
</svg>
