<svg width="32" height="32" viewBox="0 0 32 32" fill="none" xmlns="http://www.w3.org/2000/svg">
<path d="M15.8796 12.25C15.5831 12.25 15.2931 12.162 15.0466 11.9972C14.8 11.8324 14.6078 11.5981 14.4943 11.324C14.3808 11.0499 14.3511 10.7483 14.4089 10.4574C14.4668 10.1664 14.6096 9.89912 14.8193 9.68934C15.029 9.47956 15.2962 9.3367 15.5871 9.27882C15.878 9.22094 16.1795 9.25065 16.4535 9.36418C16.7275 9.47771 16.9617 9.66997 17.1264 9.91665C17.2912 10.1633 17.3791 10.4533 17.3791 10.75C17.3791 11.1478 17.2212 11.5294 16.94 11.8107C16.6587 12.092 16.2773 12.25 15.8796 12.25Z" fill="#99999D"/>
<path d="M15.8796 17.5C15.5831 17.5 15.2931 17.412 15.0466 17.2472C14.8 17.0824 14.6078 16.8481 14.4943 16.574C14.3808 16.2999 14.3511 15.9983 14.4089 15.7074C14.4668 15.4164 14.6096 15.1491 14.8193 14.9393C15.029 14.7296 15.2962 14.5867 15.5871 14.5288C15.878 14.4709 16.1795 14.5006 16.4535 14.6142C16.7275 14.7277 16.9617 14.92 17.1264 15.1666C17.2912 15.4133 17.3791 15.7033 17.3791 16C17.3791 16.3978 17.2212 16.7794 16.94 17.0607C16.6587 17.342 16.2773 17.5 15.8796 17.5Z" fill="#99999D"/>
<path d="M15.8796 22.75C15.5831 22.75 15.2931 22.662 15.0466 22.4972C14.8 22.3324 14.6078 22.0981 14.4943 21.824C14.3808 21.5499 14.3511 21.2483 14.4089 20.9574C14.4668 20.6664 14.6096 20.3991 14.8193 20.1893C15.029 19.9796 15.2962 19.8367 15.5871 19.7788C15.878 19.7209 16.1795 19.7506 16.4535 19.8642C16.7275 19.9777 16.9617 20.17 17.1264 20.4166C17.2912 20.6633 17.3791 20.9533 17.3791 21.25C17.3791 21.6478 17.2212 22.0294 16.94 22.3107C16.6587 22.592 16.2773 22.75 15.8796 22.75Z" fill="#99999D"/>
</svg>
