<svg width="16" height="16" viewBox="0 0 16 16" fill="none" xmlns="http://www.w3.org/2000/svg">
<path d="M13.3246 8.00008C13.3246 8.17689 13.2543 8.34646 13.1294 8.47149C13.0044 8.59651 12.8349 8.66675 12.6581 8.66675H8.65942V12.6667C8.65942 12.8436 8.5892 13.0131 8.46422 13.1382C8.33924 13.2632 8.16972 13.3334 7.99297 13.3334C7.81622 13.3334 7.6467 13.2632 7.52172 13.1382C7.39673 13.0131 7.32652 12.8436 7.32652 12.6667V8.66675H3.32783C3.15107 8.66675 2.98156 8.59651 2.85657 8.47149C2.73159 8.34646 2.66138 8.17689 2.66138 8.00008C2.66138 7.82327 2.73159 7.6537 2.85657 7.52868C2.98156 7.40365 3.15107 7.33341 3.32783 7.33341H7.32652V3.33341C7.32652 3.1566 7.39673 2.98703 7.52172 2.86201C7.6467 2.73699 7.81622 2.66675 7.99297 2.66675C8.16972 2.66675 8.33924 2.73699 8.46422 2.86201C8.5892 2.98703 8.65942 3.1566 8.65942 3.33341V7.33341H12.6581C12.8349 7.33341 13.0044 7.40365 13.1294 7.52868C13.2543 7.6537 13.3246 7.82327 13.3246 8.00008Z" fill="#32323A"/>
</svg>
