<svg width="20" height="20" viewBox="0 0 20 20" fill="none" xmlns="http://www.w3.org/2000/svg">
<path d="M16.6558 10C16.6558 10.2211 16.568 10.433 16.4118 10.5893C16.2555 10.7456 16.0436 10.8334 15.8227 10.8334H10.8243V15.8334C10.8243 16.0544 10.7366 16.2663 10.5803 16.4226C10.4241 16.5789 10.2122 16.6667 9.99127 16.6667C9.77033 16.6667 9.55844 16.5789 9.40221 16.4226C9.24598 16.2663 9.15821 16.0544 9.15821 15.8334V10.8334H4.15984C3.9389 10.8334 3.72701 10.7456 3.57078 10.5893C3.41455 10.433 3.32678 10.2211 3.32678 10C3.32678 9.77903 3.41455 9.56706 3.57078 9.41078C3.72701 9.2545 3.9389 9.16671 4.15984 9.16671H9.15821V4.16671C9.15821 3.94569 9.24598 3.73373 9.40221 3.57745C9.55844 3.42117 9.77033 3.33337 9.99127 3.33337C10.2122 3.33337 10.4241 3.42117 10.5803 3.57745C10.7366 3.73373 10.8243 3.94569 10.8243 4.16671V9.16671H15.8227C16.0436 9.16671 16.2555 9.2545 16.4118 9.41078C16.568 9.56706 16.6558 9.77903 16.6558 10Z" fill="white"/>
</svg>
