<svg width="16" height="16" viewBox="0 0 16 16" fill="none" xmlns="http://www.w3.org/2000/svg">
<path d="M13.3333 8.00002C13.3333 8.17683 13.2631 8.3464 13.1381 8.47143C13.013 8.59645 12.8435 8.66669 12.6667 8.66669H8.66666V12.6667C8.66666 12.8435 8.59642 13.0131 8.47139 13.1381C8.34637 13.2631 8.1768 13.3334 7.99999 13.3334C7.82318 13.3334 7.65361 13.2631 7.52858 13.1381C7.40356 13.0131 7.33332 12.8435 7.33332 12.6667V8.66669H3.33332C3.15651 8.66669 2.98694 8.59645 2.86192 8.47143C2.73689 8.3464 2.66666 8.17683 2.66666 8.00002C2.66666 7.82321 2.73689 7.65364 2.86192 7.52861C2.98694 7.40359 3.15651 7.33335 3.33332 7.33335H7.33332V3.33335C7.33332 3.15654 7.40356 2.98697 7.52858 2.86195C7.65361 2.73692 7.82318 2.66669 7.99999 2.66669C8.1768 2.66669 8.34637 2.73692 8.47139 2.86195C8.59642 2.98697 8.66666 3.15654 8.66666 3.33335V7.33335H12.6667C12.8435 7.33335 13.013 7.40359 13.1381 7.52861C13.2631 7.65364 13.3333 7.82321 13.3333 8.00002Z" fill="#99999D"/>
</svg>
