<svg width="21" height="20" viewBox="0 0 21 20" fill="none" xmlns="http://www.w3.org/2000/svg">
<path fill-rule="evenodd" clip-rule="evenodd" d="M3.40216 4.16665C3.40216 3.70641 3.77526 3.33331 4.23549 3.33331L13.4022 3.33331C13.8624 3.33331 14.2355 3.70641 14.2355 4.16665C14.2355 4.62688 13.8624 4.99998 13.4022 4.99998L4.23549 4.99998C3.77526 4.99998 3.40216 4.62688 3.40216 4.16665ZM3.40216 9.99998C3.40216 9.53974 3.77526 9.16665 4.23549 9.16665L17.5688 9.16665C18.0291 9.16665 18.4022 9.53974 18.4022 9.99998C18.4022 10.4602 18.0291 10.8333 17.5688 10.8333L4.23549 10.8333C3.77526 10.8333 3.40216 10.4602 3.40216 9.99998ZM3.40216 15.8333C3.40216 15.3731 3.77526 15 4.23549 15L11.7355 15C12.1957 15 12.5688 15.3731 12.5688 15.8333C12.5688 16.2936 12.1957 16.6666 11.7355 16.6666L4.23549 16.6666C3.77526 16.6666 3.40216 16.2936 3.40216 15.8333Z" fill="#99999D"/>
</svg>
