<svg width="21" height="20" viewBox="0 0 21 20" fill="none" xmlns="http://www.w3.org/2000/svg">
<path fill-rule="evenodd" clip-rule="evenodd" d="M17.0643 5.83342C17.0643 4.4527 15.9454 3.33341 14.5652 3.33341L6.23455 3.33341C4.85429 3.33341 3.73537 4.4527 3.73537 5.83342V14.1667C3.73537 15.5475 4.85429 16.6667 6.23455 16.6667H14.5652C15.9454 16.6667 17.0643 15.5475 17.0643 14.1667V5.83342ZM14.5652 1.66675C16.8656 1.66675 18.7305 3.53223 18.7305 5.83342V14.1667C18.7305 16.4679 16.8656 18.3334 14.5652 18.3334H6.23455C3.93412 18.3334 2.06924 16.4679 2.06924 14.1667V5.83342C2.06924 3.53223 3.93412 1.66675 6.23455 1.66675L14.5652 1.66675Z" fill="white"/>
<path fill-rule="evenodd" clip-rule="evenodd" d="M6.23456 10.0001C6.23456 9.53984 6.60753 9.16675 7.06762 9.16675H13.7321C14.1922 9.16675 14.5652 9.53984 14.5652 10.0001C14.5652 10.4603 14.1922 10.8334 13.7321 10.8334H7.06762C6.60753 10.8334 6.23456 10.4603 6.23456 10.0001Z" fill="white"/>
<path fill-rule="evenodd" clip-rule="evenodd" d="M6.23456 6.66659C6.23456 6.20635 6.60753 5.83325 7.06762 5.83325H12.066C12.5261 5.83325 12.899 6.20635 12.899 6.66659C12.899 7.12682 12.5261 7.49992 12.066 7.49992H7.06762C6.60753 7.49992 6.23456 7.12682 6.23456 6.66659Z" fill="white"/>
<path fill-rule="evenodd" clip-rule="evenodd" d="M6.23456 13.3333C6.23456 12.8731 6.60753 12.5 7.06762 12.5H10.3999C10.86 12.5 11.2329 12.8731 11.2329 13.3333C11.2329 13.7936 10.86 14.1667 10.3999 14.1667H7.06762C6.60753 14.1667 6.23456 13.7936 6.23456 13.3333Z" fill="white"/>
</svg>
