<svg width="25" height="24" viewBox="0 0 25 24" fill="none" xmlns="http://www.w3.org/2000/svg">
<path fill-rule="evenodd" clip-rule="evenodd" d="M2.49608 12C2.49608 6.49589 6.99379 1.9967 12.4961 1.9967C17.9984 1.9967 22.4961 6.49589 22.4961 12C22.4961 17.5041 17.9984 22.0032 12.4961 22.0032C6.99379 22.0032 2.49608 17.5041 2.49608 12ZM12.4961 3.99736C8.09836 3.99736 4.49608 7.60082 4.49608 12C4.49608 16.3991 8.09836 20.0026 12.4961 20.0026C16.8938 20.0026 20.4961 16.3991 20.4961 12C20.4961 7.60082 16.8938 3.99736 12.4961 3.99736Z" fill="white"/>
<path fill-rule="evenodd" clip-rule="evenodd" d="M12.4961 7.49854C13.0484 7.49854 13.4961 7.9464 13.4961 8.49886L13.4961 12C13.4961 12.5525 13.0484 13.0003 12.4961 13.0003C11.9438 13.0003 11.4961 12.5525 11.4961 12L11.4961 8.49886C11.4961 7.9464 11.9438 7.49854 12.4961 7.49854Z" fill="white"/>
<path fill-rule="evenodd" clip-rule="evenodd" d="M11.2407 15.5011C11.2407 14.8106 11.8004 14.2507 12.4907 14.2507H12.4997C13.19 14.2507 13.7497 14.8106 13.7497 15.5011C13.7497 16.1917 13.19 16.7515 12.4997 16.7515H12.4907C11.8004 16.7515 11.2407 16.1917 11.2407 15.5011Z" fill="white"/>
</svg>
