<svg width="21" height="20" viewBox="0 0 21 20" fill="none" xmlns="http://www.w3.org/2000/svg">
<g clip-path="url(#clip0_6510_7078)">
<path fill-rule="evenodd" clip-rule="evenodd" d="M5.50002 3.33341C4.57955 3.33341 3.83335 4.07961 3.83335 5.00008C3.83335 5.92056 4.57955 6.66675 5.50002 6.66675C6.42049 6.66675 7.16669 5.92056 7.16669 5.00008C7.16669 4.07961 6.42049 3.33341 5.50002 3.33341ZM2.16669 5.00008C2.16669 3.15913 3.65907 1.66675 5.50002 1.66675C7.34097 1.66675 8.83335 3.15913 8.83335 5.00008C8.83335 6.84103 7.34097 8.33341 5.50002 8.33341C3.65907 8.33341 2.16669 6.84103 2.16669 5.00008Z" fill="white"/>
<path fill-rule="evenodd" clip-rule="evenodd" d="M15.5 3.33341C14.5795 3.33341 13.8334 4.07961 13.8334 5.00008C13.8334 5.92056 14.5795 6.66675 15.5 6.66675C16.4205 6.66675 17.1667 5.92056 17.1667 5.00008C17.1667 4.07961 16.4205 3.33341 15.5 3.33341ZM12.1667 5.00008C12.1667 3.15913 13.6591 1.66675 15.5 1.66675C17.341 1.66675 18.8334 3.15913 18.8334 5.00008C18.8334 6.84103 17.341 8.33341 15.5 8.33341C13.6591 8.33341 12.1667 6.84103 12.1667 5.00008Z" fill="white"/>
<path fill-rule="evenodd" clip-rule="evenodd" d="M5.50002 13.3334C4.57955 13.3334 3.83335 14.0796 3.83335 15.0001C3.83335 15.9206 4.57955 16.6667 5.50002 16.6667C6.42049 16.6667 7.16669 15.9206 7.16669 15.0001C7.16669 14.0796 6.42049 13.3334 5.50002 13.3334ZM2.16669 15.0001C2.16669 13.1591 3.65907 11.6667 5.50002 11.6667C7.34097 11.6667 8.83335 13.1591 8.83335 15.0001C8.83335 16.841 7.34097 18.3334 5.50002 18.3334C3.65907 18.3334 2.16669 16.841 2.16669 15.0001Z" fill="white"/>
<path fill-rule="evenodd" clip-rule="evenodd" d="M15.5 13.3334C14.5795 13.3334 13.8334 14.0796 13.8334 15.0001C13.8334 15.9206 14.5795 16.6667 15.5 16.6667C16.4205 16.6667 17.1667 15.9206 17.1667 15.0001C17.1667 14.0796 16.4205 13.3334 15.5 13.3334ZM12.1667 15.0001C12.1667 13.1591 13.6591 11.6667 15.5 11.6667C17.341 11.6667 18.8334 13.1591 18.8334 15.0001C18.8334 16.841 17.341 18.3334 15.5 18.3334C13.6591 18.3334 12.1667 16.841 12.1667 15.0001Z" fill="white"/>
</g>
<defs>
<clipPath id="clip0_6510_7078">
<rect width="20" height="20" fill="white" transform="translate(0.5)"/>
</clipPath>
</defs>
</svg>
