<svg width="20" height="20" viewBox="0 0 20 20" fill="none" xmlns="http://www.w3.org/2000/svg">
<path fill-rule="evenodd" clip-rule="evenodd" d="M4.46503 3.38609C4.3076 3.32734 4.13608 3.31731 3.97269 3.35755C3.80183 3.39962 3.64821 3.4946 3.53376 3.62936C3.41929 3.76416 3.34987 3.93188 3.33563 4.10882C3.32202 4.27798 3.35954 4.44703 3.44284 4.59404L6.11606 8.41354C6.44404 8.87742 6.62008 9.43176 6.62008 9.99996C6.62008 10.5682 6.44405 11.1225 6.11609 11.5863L3.44284 15.4059C3.35954 15.5529 3.32202 15.7219 3.33563 15.8911C3.34987 16.068 3.41929 16.2358 3.53376 16.3706C3.64821 16.5053 3.80183 16.6003 3.97269 16.6424C4.13609 16.6826 4.3076 16.6726 4.46503 16.6138L16.04 11.0051C16.0409 11.0047 16.0417 11.0042 16.0425 11.0038C16.2281 10.9116 16.3847 10.7692 16.4945 10.5923C16.6047 10.4147 16.6632 10.2095 16.6632 9.99996C16.6632 9.79046 16.6047 9.58526 16.4945 9.40762C16.3847 9.23076 16.2281 9.08833 16.0425 8.99607C16.0417 8.99567 16.0409 8.99527 16.04 8.99487L4.46503 3.38609ZM3.57434 1.7392C4.08566 1.6133 4.62354 1.65192 5.11166 1.84951C5.1288 1.85645 5.1457 1.86396 5.16234 1.87202L16.778 7.50049C17.244 7.73069 17.6362 8.08696 17.9103 8.52869C18.1844 8.97041 18.3296 9.48006 18.3296 9.99996C18.3296 10.5199 18.1844 11.0295 17.9103 11.4712C17.6362 11.913 17.244 12.2692 16.7779 12.4994L16.7723 12.5022L5.16234 18.1279C5.1457 18.136 5.1288 18.1435 5.11166 18.1504C4.62354 18.348 4.08566 18.3866 3.57434 18.2607C3.06303 18.1348 2.60454 17.8509 2.26367 17.4495C1.92283 17.0481 1.71684 16.5497 1.67461 16.0248C1.63237 15.4999 1.756 14.9749 2.02816 14.5242C2.03785 14.5081 2.04807 14.4924 2.05882 14.4771L4.7549 10.6249C4.88412 10.4425 4.95369 10.2241 4.95369 9.99996C4.95369 9.77584 4.88414 9.55744 4.75491 9.37502L4.75217 9.37116L2.05882 5.52286C2.04807 5.5075 2.03785 5.49179 2.02816 5.47575C1.756 5.02499 1.63237 4.49999 1.67461 3.97512C1.71684 3.45025 1.92283 2.95178 2.26367 2.55042C2.60454 2.14904 3.06303 1.8651 3.57434 1.7392Z" fill="#99999D"/>
</svg>
