<svg width="20" height="20" viewBox="0 0 20 20" fill="none" xmlns="http://www.w3.org/2000/svg">
<path d="M14.1621 7.10014C13.3378 7.09109 12.5394 7.38755 11.9212 7.93223L9.01381 6.05171C9.13108 5.71177 9.19022 5.35453 9.18875 4.99497C9.18875 4.11224 8.83768 3.26566 8.21276 2.64147C7.58784 2.01729 6.74027 1.66663 5.8565 1.66663C4.97274 1.66663 4.12517 2.01729 3.50025 2.64147C2.87534 3.26566 2.52426 4.11224 2.52426 4.99497C2.52426 5.8777 2.87534 6.72427 3.50025 7.34846C4.12517 7.97264 4.97274 8.32331 5.8565 8.32331C6.68746 8.31867 7.48669 8.0041 8.09744 7.44129L11.0132 9.33013C10.8951 9.67276 10.836 10.0329 10.8382 10.3952C10.8346 10.6763 10.8711 10.9565 10.9465 11.2273L8.26405 12.7001C7.94975 12.373 7.57186 12.1135 7.15357 11.9375C6.73527 11.7615 6.28539 11.6727 5.83151 11.6766C4.94775 11.6766 4.10017 12.0273 3.47526 12.6515C2.85034 13.2756 2.49927 14.1222 2.49927 15.005C2.49927 15.8877 2.85034 16.7343 3.47526 17.3584C4.10017 17.9826 4.94775 18.3333 5.83151 18.3333C6.71528 18.3333 7.56285 17.9826 8.18777 17.3584C8.81269 16.7343 9.16376 15.8877 9.16376 15.005C9.16648 14.7239 9.13004 14.4439 9.05546 14.1729L11.7462 12.6918C12.0557 13.0228 12.4297 13.2873 12.8451 13.469C13.2605 13.6507 13.7086 13.7458 14.1621 13.7485C15.0459 13.7485 15.8935 13.3978 16.5184 12.7737C17.1433 12.1495 17.4944 11.3029 17.4944 10.4202C17.4922 9.53887 17.1401 8.69444 16.5154 8.07205C15.8908 7.44966 15.0444 7.10014 14.1621 7.10014ZM5.83151 6.6841C5.38963 6.6841 4.96584 6.50877 4.65338 6.19668C4.34093 5.88458 4.16539 5.46129 4.16539 5.01993C4.16539 4.57856 4.34093 4.15527 4.65338 3.84318C4.96584 3.53109 5.38963 3.35576 5.83151 3.35576C6.2734 3.35576 6.69718 3.53109 7.00964 3.84318C7.3221 4.15527 7.49763 4.57856 7.49763 5.01993C7.49763 5.46129 7.3221 5.88458 7.00964 6.19668C6.69718 6.50877 6.2734 6.6841 5.83151 6.6841ZM5.83151 16.6691C5.38963 16.6691 4.96584 16.4938 4.65338 16.1817C4.34093 15.8696 4.16539 15.4463 4.16539 15.005C4.16539 14.5636 4.34093 14.1403 4.65338 13.8282C4.96584 13.5161 5.38963 13.3408 5.83151 13.3408C6.2734 13.3408 6.69718 13.5161 7.00964 13.8282C7.3221 14.1403 7.49763 14.5636 7.49763 15.005C7.49763 15.4463 7.3221 15.8696 7.00964 16.1817C6.69718 16.4938 6.2734 16.6691 5.83151 16.6691ZM14.1621 12.0927C13.7202 12.0927 13.2965 11.9173 12.984 11.6052C12.6715 11.2931 12.496 10.8698 12.496 10.4285C12.496 9.98712 12.6715 9.56383 12.984 9.25174C13.2965 8.93964 13.7202 8.76431 14.1621 8.76431C14.604 8.76431 15.0278 8.93964 15.3403 9.25174C15.6527 9.56383 15.8282 9.98712 15.8282 10.4285C15.8282 10.8698 15.6527 11.2931 15.3403 11.6052C15.0278 11.9173 14.604 12.0927 14.1621 12.0927Z" fill="#99999D"/>
</svg>
