<svg width="16" height="16" viewBox="0 0 16 16" fill="none" xmlns="http://www.w3.org/2000/svg">
<path fill-rule="evenodd" clip-rule="evenodd" d="M5.53959 10.0024C4.93512 10.4055 4.66517 10.8892 4.66517 11.3333C4.66517 11.7775 4.93512 12.2611 5.53959 12.6643C6.13941 13.0643 7.00643 13.3333 7.99742 13.3333C8.98841 13.3333 9.85543 13.0643 10.4552 12.6643C11.0597 12.2611 11.3297 11.7775 11.3297 11.3333C11.3297 10.8892 11.0597 10.4055 10.4552 10.0024C9.85543 9.60241 8.98841 9.33333 7.99742 9.33333C7.00643 9.33333 6.13941 9.60241 5.53959 10.0024ZM4.80024 8.89302C5.64767 8.32788 6.77999 8 7.99742 8C9.21485 8 10.3472 8.32788 11.1946 8.89302C12.0374 9.45505 12.6626 10.3047 12.6626 11.3333C12.6626 12.362 12.0374 13.2116 11.1946 13.7737C10.3472 14.3388 9.21485 14.6667 7.99742 14.6667C6.77999 14.6667 5.64767 14.3388 4.80024 13.7737C3.95746 13.2116 3.33228 12.362 3.33228 11.3333C3.33228 10.3047 3.95746 9.45505 4.80024 8.89302Z" fill="#32323A"/>
<path fill-rule="evenodd" clip-rule="evenodd" d="M7.99743 2.66665C7.07726 2.66665 6.33131 3.41284 6.33131 4.33331C6.33131 5.25379 7.07726 5.99998 7.99743 5.99998C8.91761 5.99998 9.66356 5.25379 9.66356 4.33331C9.66356 3.41284 8.91761 2.66665 7.99743 2.66665ZM4.99841 4.33331C4.99841 2.67646 6.34112 1.33331 7.99743 1.33331C9.65375 1.33331 10.9965 2.67646 10.9965 4.33331C10.9965 5.99017 9.65375 7.33331 7.99743 7.33331C6.34112 7.33331 4.99841 5.99017 4.99841 4.33331Z" fill="#32323A"/>
</svg>
