<svg width="20" height="20" viewBox="0 0 20 20" fill="none" xmlns="http://www.w3.org/2000/svg">
<g clip-path="url(#clip0_5873_76938)">
<path fill-rule="evenodd" clip-rule="evenodd" d="M7.5 3.33329C6.11929 3.33329 5 4.45258 5 5.83329C5 7.214 6.11929 8.33329 7.5 8.33329C8.88071 8.33329 10 7.214 10 5.83329C10 4.45258 8.88071 3.33329 7.5 3.33329ZM3.33333 5.83329C3.33333 3.53211 5.19881 1.66663 7.5 1.66663C9.80119 1.66663 11.6667 3.53211 11.6667 5.83329C11.6667 8.13448 9.80119 9.99996 7.5 9.99996C5.19881 9.99996 3.33333 8.13448 3.33333 5.83329Z" fill="white"/>
<path fill-rule="evenodd" clip-rule="evenodd" d="M12.5 4.16671C12.5 3.70647 12.8731 3.33337 13.3333 3.33337C14.2174 3.33337 15.0652 3.68456 15.6904 4.30968C16.3155 4.93481 16.6667 5.78265 16.6667 6.66671C16.6667 7.55076 16.3155 8.39861 15.6904 9.02373C15.0652 9.64885 14.2174 10 13.3333 10C12.8731 10 12.5 9.62695 12.5 9.16671C12.5 8.70647 12.8731 8.33337 13.3333 8.33337C13.7754 8.33337 14.1993 8.15778 14.5118 7.84522C14.8244 7.53266 15 7.10874 15 6.66671C15 6.22468 14.8244 5.80076 14.5118 5.4882C14.1993 5.17564 13.7754 5.00004 13.3333 5.00004C12.8731 5.00004 12.5 4.62694 12.5 4.16671Z" fill="white"/>
<path fill-rule="evenodd" clip-rule="evenodd" d="M4.42672 12.503C3.67088 13.0069 3.33333 13.6115 3.33333 14.1667C3.33333 14.7218 3.67088 15.3264 4.42672 15.8303C5.17673 16.3303 6.26086 16.6667 7.5 16.6667C8.73914 16.6667 9.82327 16.3303 10.5733 15.8303C11.3291 15.3264 11.6667 14.7218 11.6667 14.1667C11.6667 13.6115 11.3291 13.0069 10.5733 12.503C9.82327 12.003 8.73914 11.6667 7.5 11.6667C6.26086 11.6667 5.17673 12.003 4.42672 12.503ZM3.50222 11.1163C4.56185 10.4098 5.97772 10 7.5 10C9.02229 10 10.4382 10.4098 11.4978 11.1163C12.5516 11.8188 13.3333 12.8809 13.3333 14.1667C13.3333 15.4525 12.5516 16.5145 11.4978 17.2171C10.4382 17.9235 9.02229 18.3333 7.5 18.3333C5.97772 18.3333 4.56185 17.9235 3.50222 17.2171C2.44841 16.5145 1.66667 15.4525 1.66667 14.1667C1.66667 12.8809 2.44841 11.8188 3.50222 11.1163Z" fill="white"/>
<path fill-rule="evenodd" clip-rule="evenodd" d="M13.3333 11.6667C13.3333 11.2065 13.7064 10.8334 14.1667 10.8334C15.2499 10.8334 16.2628 11.1607 17.0238 11.7312C17.7853 12.302 18.3333 13.1544 18.3333 14.1667C18.3333 15.1791 17.7853 16.0314 17.0238 16.6023C16.2628 17.1727 15.2499 17.5 14.1667 17.5C13.7064 17.5 13.3333 17.1269 13.3333 16.6667C13.3333 16.2065 13.7064 15.8334 14.1667 15.8334C14.9251 15.8334 15.5789 15.6024 16.0241 15.2687C16.4688 14.9353 16.6667 14.5377 16.6667 14.1667C16.6667 13.7957 16.4688 13.3981 16.0241 13.0648C15.5789 12.731 14.9251 12.5 14.1667 12.5C13.7064 12.5 13.3333 12.1269 13.3333 11.6667Z" fill="white"/>
</g>
<defs>
<clipPath id="clip0_5873_76938">
<rect width="20" height="20" fill="white"/>
</clipPath>
</defs>
</svg>
