<svg width="23" height="23" viewBox="0 0 23 23" fill="none" xmlns="http://www.w3.org/2000/svg">
<path d="M19.4907 7.30177C19.2172 7.10854 18.9022 6.98196 18.571 6.93212C18.2399 6.88228 17.9016 6.91057 17.5833 7.01473L14.7315 7.94065C14.5462 7.11932 14.0867 6.38561 13.4286 5.86047C12.7705 5.33532 11.9531 5.05008 11.1111 5.05177H5.55554C4.57326 5.05177 3.63121 5.44198 2.93663 6.13655C2.24205 6.83113 1.85184 7.77319 1.85184 8.75547V14.311C1.85184 15.2933 2.24205 16.2354 2.93663 16.9299C3.63121 17.6245 4.57326 18.0147 5.55554 18.0147H11.1111C11.9556 18.0155 12.775 17.7276 13.4335 17.1988C14.0919 16.67 14.5499 15.9321 14.7315 15.1073L17.5833 16.0332C17.7981 16.106 18.0232 16.1435 18.25 16.1444C18.5288 16.1456 18.805 16.0916 19.0629 15.9854C19.3207 15.8793 19.5549 15.7232 19.752 15.526C19.9492 15.3289 20.1053 15.0947 20.2114 14.8369C20.3176 14.5791 20.3716 14.3028 20.3704 14.024V9.02399C20.3708 8.68774 20.2913 8.35621 20.1383 8.05676C19.9854 7.7573 19.7634 7.49852 19.4907 7.30177ZM13.0092 14.311C13.0092 14.8022 12.8141 15.2732 12.4668 15.6205C12.1196 15.9678 11.6485 16.1629 11.1574 16.1629H5.60184C5.1107 16.1629 4.63967 15.9678 4.29238 15.6205C3.94509 15.2732 3.74998 14.8022 3.74998 14.311V8.75547C3.74998 8.26433 3.94509 7.7933 4.29238 7.44601C4.63967 7.09872 5.1107 6.90362 5.60184 6.90362H11.1574C11.6485 6.90362 12.1196 7.09872 12.4668 7.44601C12.8141 7.7933 13.0092 8.26433 13.0092 8.75547V14.311ZM18.5648 14.0518C18.5665 14.0939 18.5572 14.1357 18.5377 14.1731C18.5182 14.2105 18.4892 14.2421 18.4537 14.2647C18.418 14.2834 18.3783 14.2931 18.3379 14.2931C18.2976 14.2931 18.2579 14.2834 18.2222 14.2647L14.8611 13.1444V9.8851L18.1667 8.75547C18.2065 8.74244 18.2489 8.73894 18.2904 8.74525C18.3319 8.75156 18.3714 8.76751 18.4056 8.79182C18.4398 8.81613 18.4678 8.84812 18.4874 8.88522C18.507 8.92232 18.5177 8.96351 18.5185 9.00547L18.5648 14.0518Z" fill="#99999D"/>
<path d="M10.1852 10.6073H8.33334C8.08776 10.6073 7.85225 10.5098 7.67861 10.3361C7.50496 10.1625 7.40741 9.92699 7.40741 9.68142C7.40741 9.43585 7.50496 9.20034 7.67861 9.02669C7.85225 8.85305 8.08776 8.75549 8.33334 8.75549H10.1852C10.4308 8.75549 10.6663 8.85305 10.8399 9.02669C11.0136 9.20034 11.1111 9.43585 11.1111 9.68142C11.1111 9.92699 11.0136 10.1625 10.8399 10.3361C10.6663 10.5098 10.4308 10.6073 10.1852 10.6073Z" fill="#99999D"/>
</svg>
